<?xml version="1.0" encoding="UTF-8" standalone="no"?>
<!-- Generator: Gravit.io -->
<svg xmlns="http://www.w3.org/2000/svg" xmlns:xlink="http://www.w3.org/1999/xlink" style="isolation:isolate" viewBox="0 0 2880 864" width="2880pt" height="864pt"><defs><clipPath id="_clipPath_upoANZrM0vk2OGfbtGr1t3yDHhS8YH6i"><rect width="2880" height="864"/></clipPath></defs><g clip-path="url(#_clipPath_upoANZrM0vk2OGfbtGr1t3yDHhS8YH6i)"><mask id="_mask_C0jMy9knvc0RdAtoGUI4rnuHs1NwpWTh"><rect x="120.213" y="185.133" width="115.92" height="493.733" fill="white" stroke="none"/></mask><rect x="120.213" y="185.133" width="115.92" height="493.733" transform="matrix(1,0,0,1,0,0)" fill="none"/><rect x="120.213" y="185.133" width="115.92" height="493.733" transform="matrix(1,0,0,1,0,0)" fill="none" mask="url(#_mask_C0jMy9knvc0RdAtoGUI4rnuHs1NwpWTh)" vector-effect="non-scaling-stroke" stroke-width="8" stroke="rgb(0,0,0)" stroke-linejoin="miter" stroke-linecap="square" stroke-miterlimit="2"/><mask id="_mask_dKsGOsLkDUaoJLvWlGhblWYIZkpFq0vp"><rect x="809.243" y="240.479" width="70.17" height="383.042" fill="white" stroke="none"/></mask><rect x="809.243" y="240.479" width="70.17" height="383.042" transform="matrix(0,-1,1,0,412.328,1276.328)" fill="none"/><rect x="809.243" y="240.479" width="70.17" height="383.042" transform="matrix(0,-1,1,0,412.328,1276.328)" fill="none" mask="url(#_mask_dKsGOsLkDUaoJLvWlGhblWYIZkpFq0vp)" vector-effect="non-scaling-stroke" stroke-width="8" stroke="rgb(0,0,0)" stroke-linejoin="miter" stroke-linecap="square" stroke-miterlimit="2"/><mask id="_mask_7OC5sr442sTuwCv8pICfvCm9Mj634bD1"><rect x="1752.132" y="240.479" width="70.17" height="383.042" fill="white" stroke="none"/></mask><rect x="1752.132" y="240.479" width="70.17" height="383.042" transform="matrix(0,-1,1,0,1355.217,2219.217)" fill="none"/><rect x="1752.132" y="240.479" width="70.17" height="383.042" transform="matrix(0,-1,1,0,1355.217,2219.217)" fill="none" mask="url(#_mask_7OC5sr442sTuwCv8pICfvCm9Mj634bD1)" vector-effect="non-scaling-stroke" stroke-width="8" stroke="rgb(0,0,0)" stroke-linejoin="miter" stroke-linecap="square" stroke-miterlimit="2"/><mask id="_mask_OLx6xAEM7Isajsjv8geOIDuh9paErmAT"><rect x="1124.338" y="356.161" width="70.17" height="151.678" fill="white" stroke="none"/></mask><rect x="1124.338" y="356.161" width="70.17" height="151.678" transform="matrix(0,-1,1,0,727.423,1591.423)" fill="none"/><rect x="1124.338" y="356.161" width="70.17" height="151.678" transform="matrix(0,-1,1,0,727.423,1591.423)" fill="none" mask="url(#_mask_OLx6xAEM7Isajsjv8geOIDuh9paErmAT)" vector-effect="non-scaling-stroke" stroke-width="8" stroke="rgb(0,0,0)" stroke-linejoin="miter" stroke-linecap="square" stroke-miterlimit="2"/><mask id="_mask_azqnbTtZ1sNgLgjZ1xY4jityDRrAUWP4"><rect x="2067.228" y="356.161" width="70.17" height="151.678" fill="white" stroke="none"/></mask><rect x="2067.228" y="356.161" width="70.17" height="151.678" transform="matrix(0,-1,1,0,1670.313,2534.313)" fill="none"/><rect x="2067.228" y="356.161" width="70.17" height="151.678" transform="matrix(0,-1,1,0,1670.313,2534.313)" fill="none" mask="url(#_mask_azqnbTtZ1sNgLgjZ1xY4jityDRrAUWP4)" vector-effect="non-scaling-stroke" stroke-width="8" stroke="rgb(0,0,0)" stroke-linejoin="miter" stroke-linecap="square" stroke-miterlimit="2"/><mask id="_mask_WwFX2zvkWY1swf9be8sj28pTcng2tw5t"><rect x="439.151" y="139.219" width="115.92" height="688.5" fill="white" stroke="none"/></mask><rect x="439.151" y="139.219" width="115.92" height="688.5" transform="matrix(1,0,0,1,0,0)" fill="none"/><rect x="439.151" y="139.219" width="115.92" height="688.5" transform="matrix(1,0,0,1,0,0)" fill="none" mask="url(#_mask_WwFX2zvkWY1swf9be8sj28pTcng2tw5t)" vector-effect="non-scaling-stroke" stroke-width="8" stroke="rgb(0,0,0)" stroke-linejoin="miter" stroke-linecap="square" stroke-miterlimit="2"/><mask id="_mask_1QeUCiX6PftiFZqtc1geqWmFtvAS6FFa"><rect x="1382.04" y="140.579" width="115.92" height="688.5" fill="white" stroke="none"/></mask><rect x="1382.04" y="140.579" width="115.92" height="688.5" transform="matrix(1,0,0,1,0,0)" fill="none"/><rect x="1382.04" y="140.579" width="115.92" height="688.5" transform="matrix(1,0,0,1,0,0)" fill="none" mask="url(#_mask_1QeUCiX6PftiFZqtc1geqWmFtvAS6FFa)" vector-effect="non-scaling-stroke" stroke-width="8" stroke="rgb(0,0,0)" stroke-linejoin="miter" stroke-linecap="square" stroke-miterlimit="2"/><mask id="_mask_fQoQOTfXhlqDdeeoFyAQpzLjJw0vvvaW"><rect x="2326.969" y="140.579" width="115.92" height="688.5" fill="white" stroke="none"/></mask><rect x="2326.969" y="140.579" width="115.92" height="688.5" transform="matrix(1,0,0,1,0,0)" fill="none"/><rect x="2326.969" y="140.579" width="115.92" height="688.5" transform="matrix(1,0,0,1,0,0)" fill="none" mask="url(#_mask_fQoQOTfXhlqDdeeoFyAQpzLjJw0vvvaW)" vector-effect="non-scaling-stroke" stroke-width="8" stroke="rgb(0,0,0)" stroke-linejoin="miter" stroke-linecap="square" stroke-miterlimit="2"/><line x1="120.213" y1="359.091" x2="0" y2="359.091" vector-effect="non-scaling-stroke" stroke-width="4" stroke="rgb(0,0,0)" stroke-linejoin="miter" stroke-linecap="square" stroke-miterlimit="3"/><line x1="120.213" y1="503.03" x2="0" y2="503.03" vector-effect="non-scaling-stroke" stroke-width="4" stroke="rgb(0,0,0)" stroke-linejoin="miter" stroke-linecap="square" stroke-miterlimit="3"/><g clip-path="url(#_clipPath_ck0k2CYzPnQfOIzqH2NL8CPs0l5uLrHm)"><text transform="matrix(0,1,-1,0,157.233,227.5)" style="font-family:'Overpass Mono';font-weight:400;font-size:60px;font-style:normal;fill:#000000;stroke:none;">Concatenate</text></g><defs><clipPath id="_clipPath_ck0k2CYzPnQfOIzqH2NL8CPs0l5uLrHm"><rect x="0" y="0" width="409" height="75.96" transform="matrix(0,1,-1,0,216.153,227.5)"/></clipPath></defs><mask id="_mask_jSgjI8iWShpeGkWwfAOArKUfNn82Nxf0"><circle vector-effect="non-scaling-stroke" cx="497.1108333333333" cy="197.96937499999996" r="44.37437499999996" fill="white" stroke="none"/></mask><circle vector-effect="non-scaling-stroke" cx="497.1108333333333" cy="197.96937499999996" r="44.37437499999996" fill="none"/><circle vector-effect="non-scaling-stroke" cx="497.1108333333333" cy="197.96937499999996" r="44.37437499999996" fill="none" mask="url(#_mask_jSgjI8iWShpeGkWwfAOArKUfNn82Nxf0)" stroke-width="6" stroke="rgb(0,0,0)" stroke-linejoin="miter" stroke-linecap="square" stroke-miterlimit="3"/><mask id="_mask_ckROr139sBEDWdb5zv6iQNPdvqc2mxj3"><circle vector-effect="non-scaling-stroke" cx="1440.0000000000005" cy="199.32999999999913" r="44.37437499999987" fill="white" stroke="none"/></mask><circle vector-effect="non-scaling-stroke" cx="1440.0000000000005" cy="199.32999999999913" r="44.37437499999987" fill="none"/><circle vector-effect="non-scaling-stroke" cx="1440.0000000000005" cy="199.32999999999913" r="44.37437499999987" fill="none" mask="url(#_mask_ckROr139sBEDWdb5zv6iQNPdvqc2mxj3)" stroke-width="6" stroke="rgb(0,0,0)" stroke-linejoin="miter" stroke-linecap="square" stroke-miterlimit="3"/><mask id="_mask_72sdM4rpNf6V56ErdxCSxzXHVZRNamoP"><circle vector-effect="non-scaling-stroke" cx="2384.9291365559893" cy="199.32999999999913" r="44.37437499999987" fill="white" stroke="none"/></mask><circle vector-effect="non-scaling-stroke" cx="2384.9291365559893" cy="199.32999999999913" r="44.37437499999987" fill="none"/><circle vector-effect="non-scaling-stroke" cx="2384.9291365559893" cy="199.32999999999913" r="44.37437499999987" fill="none" mask="url(#_mask_72sdM4rpNf6V56ErdxCSxzXHVZRNamoP)" stroke-width="6" stroke="rgb(0,0,0)" stroke-linejoin="miter" stroke-linecap="square" stroke-miterlimit="3"/><mask id="_mask_MWgSSdLflkEvarlb8bSS3k92HzuB6exL"><circle vector-effect="non-scaling-stroke" cx="497.1108333333332" cy="297.9693749999999" r="44.37437499999996" fill="white" stroke="none"/></mask><circle vector-effect="non-scaling-stroke" cx="497.1108333333332" cy="297.9693749999999" r="44.37437499999996" fill="none"/><circle vector-effect="non-scaling-stroke" cx="497.1108333333332" cy="297.9693749999999" r="44.37437499999996" fill="none" mask="url(#_mask_MWgSSdLflkEvarlb8bSS3k92HzuB6exL)" stroke-width="6" stroke="rgb(0,0,0)" stroke-linejoin="miter" stroke-linecap="square" stroke-miterlimit="3"/><mask id="_mask_KKJoCLCZWAYKGaCiBvnE3R8IwKLVBf7h"><circle vector-effect="non-scaling-stroke" cx="1440.0000000000005" cy="299.3299999999991" r="44.37437499999987" fill="white" stroke="none"/></mask><circle vector-effect="non-scaling-stroke" cx="1440.0000000000005" cy="299.3299999999991" r="44.37437499999987" fill="none"/><circle vector-effect="non-scaling-stroke" cx="1440.0000000000005" cy="299.3299999999991" r="44.37437499999987" fill="none" mask="url(#_mask_KKJoCLCZWAYKGaCiBvnE3R8IwKLVBf7h)" stroke-width="6" stroke="rgb(0,0,0)" stroke-linejoin="miter" stroke-linecap="square" stroke-miterlimit="3"/><mask id="_mask_HFK8uZP0q7aQ5lMSbe7Z4lLdz4dFo7Ux"><circle vector-effect="non-scaling-stroke" cx="2384.9291365559893" cy="299.329999999999" r="44.37437499999987" fill="white" stroke="none"/></mask><circle vector-effect="non-scaling-stroke" cx="2384.9291365559893" cy="299.329999999999" r="44.37437499999987" fill="none"/><circle vector-effect="non-scaling-stroke" cx="2384.9291365559893" cy="299.329999999999" r="44.37437499999987" fill="none" mask="url(#_mask_HFK8uZP0q7aQ5lMSbe7Z4lLdz4dFo7Ux)" stroke-width="6" stroke="rgb(0,0,0)" stroke-linejoin="miter" stroke-linecap="square" stroke-miterlimit="3"/><mask id="_mask_qYQYtAbyxZIciTzbQOccrj8ZgKsgMJVP"><circle vector-effect="non-scaling-stroke" cx="497.11083333333283" cy="766.9693749999988" r="44.37437499999996" fill="white" stroke="none"/></mask><circle vector-effect="non-scaling-stroke" cx="497.11083333333283" cy="766.9693749999988" r="44.37437499999996" fill="none"/><circle vector-effect="non-scaling-stroke" cx="497.11083333333283" cy="766.9693749999988" r="44.37437499999996" fill="none" mask="url(#_mask_qYQYtAbyxZIciTzbQOccrj8ZgKsgMJVP)" stroke-width="6" stroke="rgb(0,0,0)" stroke-linejoin="miter" stroke-linecap="square" stroke-miterlimit="3"/><mask id="_mask_1pqacckA4AbADIr2rzMESk9l5j4qqQvg"><circle vector-effect="non-scaling-stroke" cx="1440" cy="768.3299999999978" r="44.37437499999987" fill="white" stroke="none"/></mask><circle vector-effect="non-scaling-stroke" cx="1440" cy="768.3299999999978" r="44.37437499999987" fill="none"/><circle vector-effect="non-scaling-stroke" cx="1440" cy="768.3299999999978" r="44.37437499999987" fill="none" mask="url(#_mask_1pqacckA4AbADIr2rzMESk9l5j4qqQvg)" stroke-width="6" stroke="rgb(0,0,0)" stroke-linejoin="miter" stroke-linecap="square" stroke-miterlimit="3"/><mask id="_mask_QnwKQRlugfmzbUkV338vY3BSslRdwVa0"><circle vector-effect="non-scaling-stroke" cx="2384.929136555989" cy="768.3299999999978" r="44.37437499999987" fill="white" stroke="none"/></mask><circle vector-effect="non-scaling-stroke" cx="2384.929136555989" cy="768.3299999999978" r="44.37437499999987" fill="none"/><circle vector-effect="non-scaling-stroke" cx="2384.929136555989" cy="768.3299999999978" r="44.37437499999987" fill="none" mask="url(#_mask_QnwKQRlugfmzbUkV338vY3BSslRdwVa0)" stroke-width="6" stroke="rgb(0,0,0)" stroke-linejoin="miter" stroke-linecap="square" stroke-miterlimit="3"/><mask id="_mask_1RLGl9ILDD4ukoc8h6uK4uee87bDHClX"><circle vector-effect="non-scaling-stroke" cx="497.1108333333331" cy="397.96937499999984" r="44.37437499999993" fill="white" stroke="none"/></mask><circle vector-effect="non-scaling-stroke" cx="497.1108333333331" cy="397.96937499999984" r="44.37437499999993" fill="none"/><circle vector-effect="non-scaling-stroke" cx="497.1108333333331" cy="397.96937499999984" r="44.37437499999993" fill="none" mask="url(#_mask_1RLGl9ILDD4ukoc8h6uK4uee87bDHClX)" stroke-width="6" stroke="rgb(0,0,0)" stroke-linejoin="miter" stroke-linecap="square" stroke-miterlimit="3"/><mask id="_mask_VNOv75szV74knzxlMSfWwBFWghfyGC88"><circle vector-effect="non-scaling-stroke" cx="1440.0000000000002" cy="399.329999999999" r="44.37437499999987" fill="white" stroke="none"/></mask><circle vector-effect="non-scaling-stroke" cx="1440.0000000000002" cy="399.329999999999" r="44.37437499999987" fill="none"/><circle vector-effect="non-scaling-stroke" cx="1440.0000000000002" cy="399.329999999999" r="44.37437499999987" fill="none" mask="url(#_mask_VNOv75szV74knzxlMSfWwBFWghfyGC88)" stroke-width="6" stroke="rgb(0,0,0)" stroke-linejoin="miter" stroke-linecap="square" stroke-miterlimit="3"/><mask id="_mask_fKWxHhvURYxgyoKGx3o229cgLzcJWdSj"><circle vector-effect="non-scaling-stroke" cx="2384.9291365559898" cy="399.32999999999885" r="44.37437499999987" fill="white" stroke="none"/></mask><circle vector-effect="non-scaling-stroke" cx="2384.9291365559898" cy="399.32999999999885" r="44.37437499999987" fill="none"/><circle vector-effect="non-scaling-stroke" cx="2384.9291365559898" cy="399.32999999999885" r="44.37437499999987" fill="none" mask="url(#_mask_fKWxHhvURYxgyoKGx3o229cgLzcJWdSj)" stroke-width="6" stroke="rgb(0,0,0)" stroke-linejoin="miter" stroke-linecap="square" stroke-miterlimit="3"/><mask id="_mask_K36PH4hdsYcDFeOkT3MTicZN14PfnWd5"><circle vector-effect="non-scaling-stroke" cx="497.110833333333" cy="497.96937499999893" r="44.37437499999993" fill="white" stroke="none"/></mask><circle vector-effect="non-scaling-stroke" cx="497.110833333333" cy="497.96937499999893" r="44.37437499999993" fill="none"/><circle vector-effect="non-scaling-stroke" cx="497.110833333333" cy="497.96937499999893" r="44.37437499999993" fill="none" mask="url(#_mask_K36PH4hdsYcDFeOkT3MTicZN14PfnWd5)" stroke-width="6" stroke="rgb(0,0,0)" stroke-linejoin="miter" stroke-linecap="square" stroke-miterlimit="3"/><mask id="_mask_pYbbGOgZYM0R1XrZJmrk2cHC45LTpFIy"><circle vector-effect="non-scaling-stroke" cx="1440.0000000000002" cy="499.32999999999805" r="44.37437499999987" fill="white" stroke="none"/></mask><circle vector-effect="non-scaling-stroke" cx="1440.0000000000002" cy="499.32999999999805" r="44.37437499999987" fill="none"/><circle vector-effect="non-scaling-stroke" cx="1440.0000000000002" cy="499.32999999999805" r="44.37437499999987" fill="none" mask="url(#_mask_pYbbGOgZYM0R1XrZJmrk2cHC45LTpFIy)" stroke-width="6" stroke="rgb(0,0,0)" stroke-linejoin="miter" stroke-linecap="square" stroke-miterlimit="3"/><mask id="_mask_9nkcnO0xmCXey6WRBaipmq7RCyHeSCfq"><circle vector-effect="non-scaling-stroke" cx="2384.929136555989" cy="499.32999999999794" r="44.37437499999987" fill="white" stroke="none"/></mask><circle vector-effect="non-scaling-stroke" cx="2384.929136555989" cy="499.32999999999794" r="44.37437499999987" fill="none"/><circle vector-effect="non-scaling-stroke" cx="2384.929136555989" cy="499.32999999999794" r="44.37437499999987" fill="none" mask="url(#_mask_9nkcnO0xmCXey6WRBaipmq7RCyHeSCfq)" stroke-width="6" stroke="rgb(0,0,0)" stroke-linejoin="miter" stroke-linecap="square" stroke-miterlimit="3"/><mask id="_mask_vQpPphg7rZA2nx0bmSCFIwRO7lGB7qhI"><circle vector-effect="non-scaling-stroke" cx="497.11083333333283" cy="599.9693749999989" r="44.37437499999996" fill="white" stroke="none"/></mask><circle vector-effect="non-scaling-stroke" cx="497.11083333333283" cy="599.9693749999989" r="44.37437499999996" fill="none"/><circle vector-effect="non-scaling-stroke" cx="497.11083333333283" cy="599.9693749999989" r="44.37437499999996" fill="none" mask="url(#_mask_vQpPphg7rZA2nx0bmSCFIwRO7lGB7qhI)" stroke-width="6" stroke="rgb(0,0,0)" stroke-linejoin="miter" stroke-linecap="square" stroke-miterlimit="3"/><mask id="_mask_iCw6cnaDPq60T8IjBrjfbrE6a0ZsC3I5"><circle vector-effect="non-scaling-stroke" cx="1440" cy="601.329999999998" r="44.37437499999987" fill="white" stroke="none"/></mask><circle vector-effect="non-scaling-stroke" cx="1440" cy="601.329999999998" r="44.37437499999987" fill="none"/><circle vector-effect="non-scaling-stroke" cx="1440" cy="601.329999999998" r="44.37437499999987" fill="none" mask="url(#_mask_iCw6cnaDPq60T8IjBrjfbrE6a0ZsC3I5)" stroke-width="6" stroke="rgb(0,0,0)" stroke-linejoin="miter" stroke-linecap="square" stroke-miterlimit="3"/><mask id="_mask_ENOHBPGH4oZhOxPhN2T0eccl1Q6kveib"><circle vector-effect="non-scaling-stroke" cx="2384.929136555989" cy="601.329999999998" r="44.37437499999987" fill="white" stroke="none"/></mask><circle vector-effect="non-scaling-stroke" cx="2384.929136555989" cy="601.329999999998" r="44.37437499999987" fill="none"/><circle vector-effect="non-scaling-stroke" cx="2384.929136555989" cy="601.329999999998" r="44.37437499999987" fill="none" mask="url(#_mask_ENOHBPGH4oZhOxPhN2T0eccl1Q6kveib)" stroke-width="6" stroke="rgb(0,0,0)" stroke-linejoin="miter" stroke-linecap="square" stroke-miterlimit="3"/><ellipse vector-effect="non-scaling-stroke" cx="497.1108333333329" cy="662.475" rx="7.256770833333576" ry="7.44166666666672" fill="rgb(0,0,0)"/><ellipse vector-effect="non-scaling-stroke" cx="1440" cy="663.8356249999993" rx="7.256770833333576" ry="7.44166666666672" fill="rgb(0,0,0)"/><ellipse vector-effect="non-scaling-stroke" cx="2384.9291365559898" cy="663.8356249999993" rx="7.256770833333576" ry="7.44166666666672" fill="rgb(0,0,0)"/><ellipse vector-effect="non-scaling-stroke" cx="497.1108333333329" cy="685.8083333333334" rx="7.256770833333576" ry="7.44166666666672" fill="rgb(0,0,0)"/><ellipse vector-effect="non-scaling-stroke" cx="1440" cy="687.1689583333325" rx="7.256770833333576" ry="7.44166666666672" fill="rgb(0,0,0)"/><ellipse vector-effect="non-scaling-stroke" cx="2384.9291365559898" cy="687.1689583333325" rx="7.256770833333576" ry="7.44166666666672" fill="rgb(0,0,0)"/><ellipse vector-effect="non-scaling-stroke" cx="497.110833333333" cy="709.1416666666667" rx="7.256770833333576" ry="7.44166666666672" fill="rgb(0,0,0)"/><ellipse vector-effect="non-scaling-stroke" cx="1440.0000000000002" cy="710.5022916666658" rx="7.256770833333576" ry="7.44166666666672" fill="rgb(0,0,0)"/><ellipse vector-effect="non-scaling-stroke" cx="2384.92913655599" cy="710.5022916666658" rx="7.256770833333576" ry="7.44166666666672" fill="rgb(0,0,0)"/><g clip-path="url(#_clipPath_EXv6HCsNxqQ2GNIOboG4RTYAJB59xEt4)"><text transform="matrix(1,0,0,1,486.913,210.533)" style="font-family:'Overpass Mono';font-weight:400;font-size:36px;font-style:normal;fill:#000000;stroke:none;">1</text></g><defs><clipPath id="_clipPath_EXv6HCsNxqQ2GNIOboG4RTYAJB59xEt4"><rect x="0" y="0" width="20.396" height="34.25" transform="matrix(1,0,0,1,486.913,180.844)"/></clipPath></defs><g clip-path="url(#_clipPath_N8ztJwmAPbzW5g59DCtCI9QboIZbZ9hj)"><text transform="matrix(1,0,0,1,1429.802,211.894)" style="font-family:'Overpass Mono';font-weight:400;font-size:36px;font-style:normal;fill:#000000;stroke:none;">1</text></g><defs><clipPath id="_clipPath_N8ztJwmAPbzW5g59DCtCI9QboIZbZ9hj"><rect x="0" y="0" width="20.396" height="34.25" transform="matrix(1,0,0,1,1429.802,182.205)"/></clipPath></defs><g clip-path="url(#_clipPath_fYIwQrX0CXd32ZWCL46ia8XolQvvfc0h)"><text transform="matrix(1,0,0,1,2374.731,211.894)" style="font-family:'Overpass Mono';font-weight:400;font-size:36px;font-style:normal;fill:#000000;stroke:none;">1</text></g><defs><clipPath id="_clipPath_fYIwQrX0CXd32ZWCL46ia8XolQvvfc0h"><rect x="0" y="0" width="20.396" height="34.25" transform="matrix(1,0,0,1,2374.731,182.205)"/></clipPath></defs><g clip-path="url(#_clipPath_Mc6jcOnZAO5uP4dxWYBwvPJnJepXbgCv)"><text transform="matrix(1,0,0,1,485.023,310.533)" style="font-family:'Overpass Mono';font-weight:400;font-size:36px;font-style:normal;fill:#000000;stroke:none;">2</text></g><defs><clipPath id="_clipPath_Mc6jcOnZAO5uP4dxWYBwvPJnJepXbgCv"><rect x="0" y="0" width="25.087" height="41.594" transform="matrix(1,0,0,1,484.567,277.172)"/></clipPath></defs><g clip-path="url(#_clipPath_mHIza7JQiIRGPenyohGndiKBns3o8vcM)"><text transform="matrix(1,0,0,1,1427.912,311.894)" style="font-family:'Overpass Mono';font-weight:400;font-size:36px;font-style:normal;fill:#000000;stroke:none;">2</text></g><defs><clipPath id="_clipPath_mHIza7JQiIRGPenyohGndiKBns3o8vcM"><rect x="0" y="0" width="25.087" height="41.594" transform="matrix(1,0,0,1,1427.456,278.533)"/></clipPath></defs><g clip-path="url(#_clipPath_nziF8BgHMTpmyamqUXU0STpFQqMLD9qA)"><text transform="matrix(1,0,0,1,2372.841,311.894)" style="font-family:'Overpass Mono';font-weight:400;font-size:36px;font-style:normal;fill:#000000;stroke:none;">2</text></g><defs><clipPath id="_clipPath_nziF8BgHMTpmyamqUXU0STpFQqMLD9qA"><rect x="0" y="0" width="25.087" height="41.594" transform="matrix(1,0,0,1,2372.386,278.533)"/></clipPath></defs><g clip-path="url(#_clipPath_Uw0fqkpsPK08dZLT7BdnCmFw8yemgDP7)"><text transform="matrix(1,0,0,1,485.74,410.533)" style="font-family:'Overpass Mono';font-weight:400;font-size:36px;font-style:normal;fill:#000000;stroke:none;">3</text></g><defs><clipPath id="_clipPath_Uw0fqkpsPK08dZLT7BdnCmFw8yemgDP7"><rect x="0" y="0" width="22.742" height="35.828" transform="matrix(1,0,0,1,485.74,380.055)"/></clipPath></defs><g clip-path="url(#_clipPath_liEsRRqhRrEQcboHZLPWuCeR4HYlguiC)"><text transform="matrix(1,0,0,1,1428.629,411.894)" style="font-family:'Overpass Mono';font-weight:400;font-size:36px;font-style:normal;fill:#000000;stroke:none;">3</text></g><defs><clipPath id="_clipPath_liEsRRqhRrEQcboHZLPWuCeR4HYlguiC"><rect x="0" y="0" width="22.742" height="35.828" transform="matrix(1,0,0,1,1428.629,381.416)"/></clipPath></defs><g clip-path="url(#_clipPath_AuAy2mGJuG8HYLHJGopVorPEm10fXZp4)"><text transform="matrix(1,0,0,1,2373.558,411.894)" style="font-family:'Overpass Mono';font-weight:400;font-size:36px;font-style:normal;fill:#000000;stroke:none;">3</text></g><defs><clipPath id="_clipPath_AuAy2mGJuG8HYLHJGopVorPEm10fXZp4"><rect x="0" y="0" width="22.742" height="35.828" transform="matrix(1,0,0,1,2373.558,381.416)"/></clipPath></defs><g clip-path="url(#_clipPath_QifqrNfg7JwEYEyVES4W5UZpb90A3pdA)"><text transform="matrix(1,0,0,1,485.74,510.533)" style="font-family:'Overpass Mono';font-weight:400;font-size:36px;font-style:normal;fill:#000000;stroke:none;">4</text></g><defs><clipPath id="_clipPath_QifqrNfg7JwEYEyVES4W5UZpb90A3pdA"><rect x="0" y="0" width="22.742" height="35.828" transform="matrix(1,0,0,1,485.74,480.055)"/></clipPath></defs><g clip-path="url(#_clipPath_m0Oyr0kAIzlJqN3mhgimTh6u2h5LSA6a)"><text transform="matrix(1,0,0,1,1428.629,511.894)" style="font-family:'Overpass Mono';font-weight:400;font-size:36px;font-style:normal;fill:#000000;stroke:none;">4</text></g><defs><clipPath id="_clipPath_m0Oyr0kAIzlJqN3mhgimTh6u2h5LSA6a"><rect x="0" y="0" width="22.742" height="35.828" transform="matrix(1,0,0,1,1428.629,481.416)"/></clipPath></defs><g clip-path="url(#_clipPath_o4F8VCOk3h5tvOIHSKfz7TqcrxlfIPHi)"><text transform="matrix(1,0,0,1,2373.558,511.894)" style="font-family:'Overpass Mono';font-weight:400;font-size:36px;font-style:normal;fill:#000000;stroke:none;">4</text></g><defs><clipPath id="_clipPath_o4F8VCOk3h5tvOIHSKfz7TqcrxlfIPHi"><rect x="0" y="0" width="22.742" height="35.828" transform="matrix(1,0,0,1,2373.558,481.416)"/></clipPath></defs><g clip-path="url(#_clipPath_7OqSLSfN9GOSTnlHaQwxESrZvR0yx1Sw)"><text transform="matrix(1,0,0,1,485.74,612.533)" style="font-family:'Overpass Mono';font-weight:400;font-size:36px;font-style:normal;fill:#000000;stroke:none;">5</text></g><defs><clipPath id="_clipPath_7OqSLSfN9GOSTnlHaQwxESrZvR0yx1Sw"><rect x="0" y="0" width="22.742" height="35.828" transform="matrix(1,0,0,1,485.74,582.055)"/></clipPath></defs><g clip-path="url(#_clipPath_jOZt041ANEw890tCl5ZZqYUbHYFT7Txn)"><text transform="matrix(1,0,0,1,1428.629,613.894)" style="font-family:'Overpass Mono';font-weight:400;font-size:36px;font-style:normal;fill:#000000;stroke:none;">5</text></g><defs><clipPath id="_clipPath_jOZt041ANEw890tCl5ZZqYUbHYFT7Txn"><rect x="0" y="0" width="22.742" height="35.828" transform="matrix(1,0,0,1,1428.629,583.416)"/></clipPath></defs><g clip-path="url(#_clipPath_HIgst7H0JcUt7w7Wrn0GO8BokxUCchce)"><text transform="matrix(1,0,0,1,2373.558,613.894)" style="font-family:'Overpass Mono';font-weight:400;font-size:36px;font-style:normal;fill:#000000;stroke:none;">5</text></g><defs><clipPath id="_clipPath_HIgst7H0JcUt7w7Wrn0GO8BokxUCchce"><rect x="0" y="0" width="22.742" height="35.828" transform="matrix(1,0,0,1,2373.558,583.416)"/></clipPath></defs><g clip-path="url(#_clipPath_wnjh3F55KlBXjkQZbXTiSMDQ8OPN8gca)"><text transform="matrix(1,0,0,1,466.543,775.345)" style="font-family:'Overpass Mono';font-weight:400;font-size:24px;font-style:normal;fill:#000000;stroke:none;">1024</text></g><defs><clipPath id="_clipPath_wnjh3F55KlBXjkQZbXTiSMDQ8OPN8gca"><rect x="0" y="0" width="80.26" height="35.828" transform="matrix(1,0,0,1,456.981,749.055)"/></clipPath></defs><g clip-path="url(#_clipPath_k7wTaE4zHocxXZQqgsJEoGXSQ8tOtuXi)"><text transform="matrix(1,0,0,1,1409.432,776.706)" style="font-family:'Overpass Mono';font-weight:400;font-size:24px;font-style:normal;fill:#000000;stroke:none;">2048</text></g><defs><clipPath id="_clipPath_k7wTaE4zHocxXZQqgsJEoGXSQ8tOtuXi"><rect x="0" y="0" width="80.26" height="35.828" transform="matrix(1,0,0,1,1399.87,750.416)"/></clipPath></defs><g clip-path="url(#_clipPath_z0vhOTSA9GrcSEdjL3qXZhlpaMTt8xRp)"><text transform="matrix(1,0,0,1,2361.753,780.894)" style="font-family:'Overpass Mono';font-weight:400;font-size:36px;font-style:normal;fill:#000000;stroke:none;">10</text></g><defs><clipPath id="_clipPath_z0vhOTSA9GrcSEdjL3qXZhlpaMTt8xRp"><rect x="0" y="0" width="80.26" height="35.828" transform="matrix(1,0,0,1,2344.799,750.416)"/></clipPath></defs><g clip-path="url(#_clipPath_5vb1lnGMCz0D1t9wMhaJlgCxJ4IG7Qva)"><text transform="matrix(1,0,0,1,422.111,123.886)" style="font-family:'Overpass Mono';font-weight:400;font-size:48px;font-style:normal;fill:#000000;stroke:none;">Dense</text></g><defs><clipPath id="_clipPath_5vb1lnGMCz0D1t9wMhaJlgCxJ4IG7Qva"><rect x="0" y="0" width="150" height="60.768" transform="matrix(1,0,0,1,422.111,76.75)"/></clipPath></defs><g clip-path="url(#_clipPath_QCWq9GE7WPUhgOsIMT3UW2XfX0hFz4zz)"><text transform="matrix(1,0,0,1,661.828,442.819)" style="font-family:'Overpass Mono';font-weight:400;font-size:31px;font-style:normal;fill:#000000;stroke:none;">Batch Normalization</text></g><defs><clipPath id="_clipPath_QCWq9GE7WPUhgOsIMT3UW2XfX0hFz4zz"><rect x="0" y="0" width="365" height="39.246" transform="matrix(1,0,0,1,661.828,412.377)"/></clipPath></defs><g clip-path="url(#_clipPath_80VNhjS2NgZ1YaF2gQ6PhvoXMeVUS0Gn)"><text transform="matrix(1,0,0,1,1604.717,442.819)" style="font-family:'Overpass Mono';font-weight:400;font-size:31px;font-style:normal;fill:#000000;stroke:none;">Batch Normalization</text></g><defs><clipPath id="_clipPath_80VNhjS2NgZ1YaF2gQ6PhvoXMeVUS0Gn"><rect x="0" y="0" width="365" height="39.246" transform="matrix(1,0,0,1,1604.717,412.377)"/></clipPath></defs><g clip-path="url(#_clipPath_BN9HZrQmdO4rDOD0LUnRs4nQy7qjgHv6)"><text transform="matrix(1,0,0,1,1092.605,442.819)" style="font-family:'Overpass Mono';font-weight:400;font-size:31px;font-style:normal;fill:#000000;stroke:none;">Dropout</text></g><defs><clipPath id="_clipPath_BN9HZrQmdO4rDOD0LUnRs4nQy7qjgHv6"><rect x="0" y="0" width="136" height="39.246" transform="matrix(1,0,0,1,1092.605,412.377)"/></clipPath></defs><g clip-path="url(#_clipPath_Z9ctIm6yME9TNSSftjHw0fyVAOEvQFff)"><text transform="matrix(1,0,0,1,2035.494,442.819)" style="font-family:'Overpass Mono';font-weight:400;font-size:31px;font-style:normal;fill:#000000;stroke:none;">Dropout</text></g><defs><clipPath id="_clipPath_Z9ctIm6yME9TNSSftjHw0fyVAOEvQFff"><rect x="0" y="0" width="136" height="39.246" transform="matrix(1,0,0,1,2035.494,412.377)"/></clipPath></defs><g clip-path="url(#_clipPath_jtjqdtoT6lZNMBw63rl9o0f0z69QaLxf)"><text transform="matrix(1,0,0,1,1365,125.247)" style="font-family:'Overpass Mono';font-weight:400;font-size:48px;font-style:normal;fill:#000000;stroke:none;">Dense</text></g><defs><clipPath id="_clipPath_jtjqdtoT6lZNMBw63rl9o0f0z69QaLxf"><rect x="0" y="0" width="150" height="60.768" transform="matrix(1,0,0,1,1365,78.111)"/></clipPath></defs><g clip-path="url(#_clipPath_w2xa6gMAnP0UzMSJww2UTksC5yUT6LMY)"><text transform="matrix(1,0,0,1,2087.929,123.886)" style="font-family:'Overpass Mono';font-weight:400;font-size:48px;font-style:normal;fill:#000000;stroke:none;">Dense (final output)</text></g><defs><clipPath id="_clipPath_w2xa6gMAnP0UzMSJww2UTksC5yUT6LMY"><rect x="0" y="0" width="594" height="60.768" transform="matrix(1,0,0,1,2087.929,76.75)"/></clipPath></defs><g clip-path="url(#_clipPath_uxicpqpJehZNt9IvHpeHTkI2IEBfe9VT)"><text transform="matrix(1,0,0,1,1134.376,65.92)" style="font-family:'Overpass Mono';font-weight:400;font-size:60px;font-style:normal;fill:#000000;stroke:none;">Cognitive Block</text></g><defs><clipPath id="_clipPath_uxicpqpJehZNt9IvHpeHTkI2IEBfe9VT"><rect x="0" y="0" width="557" height="75.96" transform="matrix(1,0,0,1,1134.376,7)"/></clipPath></defs><line x1="236.133" y1="432" x2="439.151" y2="432" vector-effect="non-scaling-stroke" stroke-width="4" stroke="rgb(0,0,0)" stroke-linejoin="miter" stroke-linecap="square" stroke-miterlimit="3"/><line x1="652.807" y1="432" x2="555.071" y2="432" vector-effect="non-scaling-stroke" stroke-width="4" stroke="rgb(0,0,0)" stroke-linejoin="miter" stroke-linecap="square" stroke-miterlimit="3"/><line x1="1595.696" y1="432" x2="1497.96" y2="432" vector-effect="non-scaling-stroke" stroke-width="4" stroke="rgb(0,0,0)" stroke-linejoin="miter" stroke-linecap="square" stroke-miterlimit="3"/><line x1="1082.584" y1="432" x2="1035.848" y2="432" vector-effect="non-scaling-stroke" stroke-width="4" stroke="rgb(0,0,0)" stroke-linejoin="miter" stroke-linecap="square" stroke-miterlimit="3"/><line x1="2025.473" y1="432" x2="1978.738" y2="432" vector-effect="non-scaling-stroke" stroke-width="4" stroke="rgb(0,0,0)" stroke-linejoin="miter" stroke-linecap="square" stroke-miterlimit="3"/><line x1="1382.04" y1="432" x2="1235.262" y2="432" vector-effect="non-scaling-stroke" stroke-width="4" stroke="rgb(0,0,0)" stroke-linejoin="miter" stroke-linecap="square" stroke-miterlimit="3"/><line x1="2324.929" y1="432" x2="2178.152" y2="432" vector-effect="non-scaling-stroke" stroke-width="4" stroke="rgb(0,0,0)" stroke-linejoin="miter" stroke-linecap="square" stroke-miterlimit="3"/></g></svg>