<svg width="325" height="325" xmlns="http://www.w3.org/2000/svg">
 <g>
  <title>Layer 1</title>
  <path id="svg_4" d="m19.98354,0.64418c102.65623,54.62761 71.747,92.67173 95.9014,130.17725c24.15441,37.50553 49.65073,110.8859 62.39889,41.58221c12.74816,-69.30369 14.76103,-48.10491 25.49632,-37.50553c10.73529,10.59939 0,44.02823 11.40625,80.71842c11.40625,36.69019 6.70956,57.88896 18.11581,60.33498c11.40625,2.44601 6.70956,-26.90614 16.77389,-29.35215c10.06434,-2.44601 5.36765,-10.59939 11.40625,-22.01411c6.0386,-11.41473 8.72242,-57.88896 8.72242,-103.54787c0,-45.6589 16.10294,-119.03928 24.15441,-131.26934" opacity="NaN" stroke="#000" fill="#fff"/>
  <path id="svg_8" d="m228.83039,276.26711l0,0c0,-3.1441 2.5488,-5.6929 5.6929,-5.6929l0,0c1.50985,0 2.95786,0.59979 4.02549,1.66741c1.06763,1.06763 1.66741,2.51564 1.66741,4.02549l0,0c0,3.1441 -2.5488,5.6929 -5.6929,5.6929l0,0c-3.1441,0 -5.6929,-2.5488 -5.6929,-5.6929zm2.84645,0l0,0c0,1.57205 1.2744,2.84645 2.84645,2.84645c1.57205,0 2.84645,-1.2744 2.84645,-2.84645c0,-1.57205 -1.2744,-2.84645 -2.84645,-2.84645l0,0c-1.57205,0 -2.84645,1.2744 -2.84645,2.84645z" stroke="#000" fill="#6d3dff"/>
  <path id="svg_9" d="m156.91392,216.26622l5.93948,-9.96344l5.93948,9.96344l-2.96974,0l0,10.01138l-5.93948,0l0,-10.01138l-2.96974,0z" stroke="#000" fill="#6d3dff"/>
  <text xml:space="preserve" text-anchor="start" font-family="'Nunito'" font-size="24" stroke-width="0" id="svg_12" y="310.74396" x="147.79101" stroke="#000" fill="#000000">Global Minimum</text>
  <text xml:space="preserve" text-anchor="start" font-family="'Nunito'" font-size="24" id="svg_13" y="245.41909" x="28.58831" stroke-width="0" stroke="#000" fill="#000000">Local Minimum</text>
 </g>

</svg>