<?xml version="1.0" encoding="UTF-8" standalone="no"?>
<!-- Generator: Gravit.io -->
<svg xmlns="http://www.w3.org/2000/svg" xmlns:xlink="http://www.w3.org/1999/xlink" style="isolation:isolate" viewBox="0 0 2880 864" width="2880pt" height="864pt"><defs><clipPath id="_clipPath_h2AW6vg7ydzYaFqgr5bMkgG6iLMaoo5P"><rect width="2880" height="864"/></clipPath></defs><g clip-path="url(#_clipPath_h2AW6vg7ydzYaFqgr5bMkgG6iLMaoo5P)"><g clip-path="url(#_clipPath_N5ZGfvaWV1cgye3U710zEuxTUcsSLNNb)"><text transform="matrix(1,0,0,1,1017.5,109.344)" style="font-family:'Overpass Mono';font-weight:400;font-size:72px;font-style:normal;fill:#000000;stroke:none;">Convolutional Chain</text></g><defs><clipPath id="_clipPath_N5ZGfvaWV1cgye3U710zEuxTUcsSLNNb"><rect x="0" y="0" width="845" height="91.152" transform="matrix(1,0,0,1,1017.5,38.64)"/></clipPath></defs><mask id="_mask_AvIgBMSDZJRCIB25VAOz580itUY0x3NU"><rect x="151.307" y="218.96" width="403.573" height="126.653" fill="white" stroke="none"/></mask><rect x="151.307" y="218.96" width="403.573" height="126.653" transform="matrix(1,0,0,1,0,0)" fill="none"/><rect x="151.307" y="218.96" width="403.573" height="126.653" transform="matrix(1,0,0,1,0,0)" fill="none" mask="url(#_mask_AvIgBMSDZJRCIB25VAOz580itUY0x3NU)" vector-effect="non-scaling-stroke" stroke-width="8" stroke="rgb(0,0,0)" stroke-linejoin="miter" stroke-linecap="square" stroke-miterlimit="2"/><mask id="_mask_Hn4zG71PcAf2OzClfhGKQSd3F9lANntC"><rect x="688.307" y="221.519" width="403.573" height="126.653" fill="white" stroke="none"/></mask><rect x="688.307" y="221.519" width="403.573" height="126.653" transform="matrix(1,0,0,1,0,0)" fill="none"/><rect x="688.307" y="221.519" width="403.573" height="126.653" transform="matrix(1,0,0,1,0,0)" fill="none" mask="url(#_mask_Hn4zG71PcAf2OzClfhGKQSd3F9lANntC)" vector-effect="non-scaling-stroke" stroke-width="8" stroke="rgb(0,0,0)" stroke-linejoin="miter" stroke-linecap="square" stroke-miterlimit="2"/><mask id="_mask_IP1NtzyR25szROFB6YnqM6SiXZ6ITmGV"><rect x="151.307" y="218.96" width="403.573" height="126.653" fill="white" stroke="none"/></mask><rect x="151.307" y="218.96" width="403.573" height="126.653" transform="matrix(1,0,0,1,0,0)" fill="none"/><rect x="151.307" y="218.96" width="403.573" height="126.653" transform="matrix(1,0,0,1,0,0)" fill="none" mask="url(#_mask_IP1NtzyR25szROFB6YnqM6SiXZ6ITmGV)" vector-effect="non-scaling-stroke" stroke-width="8" stroke="rgb(0,0,0)" stroke-linejoin="miter" stroke-linecap="square" stroke-miterlimit="2"/><mask id="_mask_D7XpNVbUVN5DuSXTaVFflQfSWDJp9fvw"><rect x="688.307" y="221.519" width="403.573" height="126.653" fill="white" stroke="none"/></mask><rect x="688.307" y="221.519" width="403.573" height="126.653" transform="matrix(1,0,0,1,0,0)" fill="none"/><rect x="688.307" y="221.519" width="403.573" height="126.653" transform="matrix(1,0,0,1,0,0)" fill="none" mask="url(#_mask_D7XpNVbUVN5DuSXTaVFflQfSWDJp9fvw)" vector-effect="non-scaling-stroke" stroke-width="8" stroke="rgb(0,0,0)" stroke-linejoin="miter" stroke-linecap="square" stroke-miterlimit="2"/><mask id="_mask_odYFTyDtvEO41AGr1fBHF2V1tHeHPaYB"><rect x="151.307" y="432" width="403.573" height="126.653" fill="white" stroke="none"/></mask><rect x="151.307" y="432" width="403.573" height="126.653" transform="matrix(1,0,0,1,0,0)" fill="none"/><rect x="151.307" y="432" width="403.573" height="126.653" transform="matrix(1,0,0,1,0,0)" fill="none" mask="url(#_mask_odYFTyDtvEO41AGr1fBHF2V1tHeHPaYB)" vector-effect="non-scaling-stroke" stroke-width="8" stroke="rgb(0,0,0)" stroke-linejoin="miter" stroke-linecap="square" stroke-miterlimit="2"/><mask id="_mask_0zVVfqvOtTS0mZLYALapYWhCe9ZbNvcj"><rect x="688.307" y="434.559" width="403.573" height="126.653" fill="white" stroke="none"/></mask><rect x="688.307" y="434.559" width="403.573" height="126.653" transform="matrix(1,0,0,1,0,0)" fill="none"/><rect x="688.307" y="434.559" width="403.573" height="126.653" transform="matrix(1,0,0,1,0,0)" fill="none" mask="url(#_mask_0zVVfqvOtTS0mZLYALapYWhCe9ZbNvcj)" vector-effect="non-scaling-stroke" stroke-width="8" stroke="rgb(0,0,0)" stroke-linejoin="miter" stroke-linecap="square" stroke-miterlimit="2"/><mask id="_mask_PdrDgUQRH5JEHIMyYPqDkVLiwlr6zysl"><rect x="2008.095" y="429.441" width="403.573" height="126.653" fill="white" stroke="none"/></mask><rect x="2008.095" y="429.441" width="403.573" height="126.653" transform="matrix(1,0,0,1,0,0)" fill="none"/><rect x="2008.095" y="429.441" width="403.573" height="126.653" transform="matrix(1,0,0,1,0,0)" fill="none" mask="url(#_mask_PdrDgUQRH5JEHIMyYPqDkVLiwlr6zysl)" vector-effect="non-scaling-stroke" stroke-width="8" stroke="rgb(0,0,0)" stroke-linejoin="miter" stroke-linecap="square" stroke-miterlimit="2"/><mask id="_mask_CgaDtF5xq1isOTepvu5opgfoRbL4GZOq"><rect x="1231.427" y="556.095" width="403.573" height="126.653" fill="white" stroke="none"/></mask><rect x="1231.427" y="556.095" width="403.573" height="126.653" transform="matrix(1,0,0,1,0,0)" fill="none"/><rect x="1231.427" y="556.095" width="403.573" height="126.653" transform="matrix(1,0,0,1,0,0)" fill="none" mask="url(#_mask_CgaDtF5xq1isOTepvu5opgfoRbL4GZOq)" vector-effect="non-scaling-stroke" stroke-width="8" stroke="rgb(0,0,0)" stroke-linejoin="miter" stroke-linecap="square" stroke-miterlimit="2"/><mask id="_mask_jdMgufzNip9uhSMd0mQYcfZwaumeUPXj"><rect x="1228.307" y="311.239" width="403.573" height="126.653" fill="white" stroke="none"/></mask><rect x="1228.307" y="311.239" width="403.573" height="126.653" transform="matrix(1,0,0,1,0,0)" fill="none"/><rect x="1228.307" y="311.239" width="403.573" height="126.653" transform="matrix(1,0,0,1,0,0)" fill="none" mask="url(#_mask_jdMgufzNip9uhSMd0mQYcfZwaumeUPXj)" vector-effect="non-scaling-stroke" stroke-width="8" stroke="rgb(0,0,0)" stroke-linejoin="miter" stroke-linecap="square" stroke-miterlimit="2"/><mask id="_mask_zFtdcZDWLqharcCqMxrbnEr7Q2VFNxYk"><rect x="151.307" y="432" width="403.573" height="126.653" fill="white" stroke="none"/></mask><rect x="151.307" y="432" width="403.573" height="126.653" transform="matrix(1,0,0,1,0,0)" fill="none"/><rect x="151.307" y="432" width="403.573" height="126.653" transform="matrix(1,0,0,1,0,0)" fill="none" mask="url(#_mask_zFtdcZDWLqharcCqMxrbnEr7Q2VFNxYk)" vector-effect="non-scaling-stroke" stroke-width="8" stroke="rgb(0,0,0)" stroke-linejoin="miter" stroke-linecap="square" stroke-miterlimit="2"/><mask id="_mask_XlUlviIigeTOsGCcwrRzDVQs8aosPhuE"><rect x="688.307" y="434.559" width="403.573" height="126.653" fill="white" stroke="none"/></mask><rect x="688.307" y="434.559" width="403.573" height="126.653" transform="matrix(1,0,0,1,0,0)" fill="none"/><rect x="688.307" y="434.559" width="403.573" height="126.653" transform="matrix(1,0,0,1,0,0)" fill="none" mask="url(#_mask_XlUlviIigeTOsGCcwrRzDVQs8aosPhuE)" vector-effect="non-scaling-stroke" stroke-width="8" stroke="rgb(0,0,0)" stroke-linejoin="miter" stroke-linecap="square" stroke-miterlimit="2"/><mask id="_mask_V4nj15KJ8hPWOHntvZsd1fCMMJqKZnal"><rect x="2008.095" y="429.441" width="403.573" height="126.653" fill="white" stroke="none"/></mask><rect x="2008.095" y="429.441" width="403.573" height="126.653" transform="matrix(1,0,0,1,0,0)" fill="none"/><rect x="2008.095" y="429.441" width="403.573" height="126.653" transform="matrix(1,0,0,1,0,0)" fill="none" mask="url(#_mask_V4nj15KJ8hPWOHntvZsd1fCMMJqKZnal)" vector-effect="non-scaling-stroke" stroke-width="8" stroke="rgb(0,0,0)" stroke-linejoin="miter" stroke-linecap="square" stroke-miterlimit="2"/><mask id="_mask_GjIPE8AejDhfYnciT8eAmT5YrujrOpbK"><rect x="1705.307" y="429.441" width="232.481" height="126.653" fill="white" stroke="none"/></mask><rect x="1705.307" y="429.441" width="232.481" height="126.653" transform="matrix(1,0,0,1,0,0)" fill="none"/><rect x="1705.307" y="429.441" width="232.481" height="126.653" transform="matrix(1,0,0,1,0,0)" fill="none" mask="url(#_mask_GjIPE8AejDhfYnciT8eAmT5YrujrOpbK)" vector-effect="non-scaling-stroke" stroke-width="8" stroke="rgb(0,0,0)" stroke-linejoin="miter" stroke-linecap="square" stroke-miterlimit="2"/><mask id="_mask_24HLRrx9hgvN2Sk4JQkvL2uNeSyZMQrH"><rect x="2486.807" y="429.441" width="232.481" height="126.653" fill="white" stroke="none"/></mask><rect x="2486.807" y="429.441" width="232.481" height="126.653" transform="matrix(1,0,0,1,0,0)" fill="none"/><rect x="2486.807" y="429.441" width="232.481" height="126.653" transform="matrix(1,0,0,1,0,0)" fill="none" mask="url(#_mask_24HLRrx9hgvN2Sk4JQkvL2uNeSyZMQrH)" vector-effect="non-scaling-stroke" stroke-width="8" stroke="rgb(0,0,0)" stroke-linejoin="miter" stroke-linecap="square" stroke-miterlimit="2"/><mask id="_mask_nvYUwJ6NA1NKVH6SdLJk1dSi93ejgygu"><rect x="1228.307" y="311.239" width="403.573" height="126.653" fill="white" stroke="none"/></mask><rect x="1228.307" y="311.239" width="403.573" height="126.653" transform="matrix(1,0,0,1,0,0)" fill="none"/><rect x="1228.307" y="311.239" width="403.573" height="126.653" transform="matrix(1,0,0,1,0,0)" fill="none" mask="url(#_mask_nvYUwJ6NA1NKVH6SdLJk1dSi93ejgygu)" vector-effect="non-scaling-stroke" stroke-width="8" stroke="rgb(0,0,0)" stroke-linejoin="miter" stroke-linecap="square" stroke-miterlimit="2"/><mask id="_mask_PX7wJWqlR8mLW3sfaFcT7VhxTakPq0PO"><rect x="151.307" y="650.96" width="403.573" height="126.653" fill="white" stroke="none"/></mask><rect x="151.307" y="650.96" width="403.573" height="126.653" transform="matrix(1,0,0,1,0,0)" fill="none"/><rect x="151.307" y="650.96" width="403.573" height="126.653" transform="matrix(1,0,0,1,0,0)" fill="none" mask="url(#_mask_PX7wJWqlR8mLW3sfaFcT7VhxTakPq0PO)" vector-effect="non-scaling-stroke" stroke-width="8" stroke="rgb(0,0,0)" stroke-linejoin="miter" stroke-linecap="square" stroke-miterlimit="2"/><mask id="_mask_fVmG0VO6pbdoZ9ad9TXCHdrm91rHY4u6"><rect x="688.307" y="653.519" width="403.573" height="126.653" fill="white" stroke="none"/></mask><rect x="688.307" y="653.519" width="403.573" height="126.653" transform="matrix(1,0,0,1,0,0)" fill="none"/><rect x="688.307" y="653.519" width="403.573" height="126.653" transform="matrix(1,0,0,1,0,0)" fill="none" mask="url(#_mask_fVmG0VO6pbdoZ9ad9TXCHdrm91rHY4u6)" vector-effect="non-scaling-stroke" stroke-width="8" stroke="rgb(0,0,0)" stroke-linejoin="miter" stroke-linecap="square" stroke-miterlimit="2"/><mask id="_mask_BtzHXkrU8vzohuYaJ271EZvK2ksNQ10a"><rect x="151.307" y="650.96" width="403.573" height="126.653" fill="white" stroke="none"/></mask><rect x="151.307" y="650.96" width="403.573" height="126.653" transform="matrix(1,0,0,1,0,0)" fill="none"/><rect x="151.307" y="650.96" width="403.573" height="126.653" transform="matrix(1,0,0,1,0,0)" fill="none" mask="url(#_mask_BtzHXkrU8vzohuYaJ271EZvK2ksNQ10a)" vector-effect="non-scaling-stroke" stroke-width="8" stroke="rgb(0,0,0)" stroke-linejoin="miter" stroke-linecap="square" stroke-miterlimit="2"/><mask id="_mask_GkGXXGSmbMzcfVkvj7kxursKlCrNKRPT"><rect x="688.307" y="653.519" width="403.573" height="126.653" fill="white" stroke="none"/></mask><rect x="688.307" y="653.519" width="403.573" height="126.653" transform="matrix(1,0,0,1,0,0)" fill="none"/><rect x="688.307" y="653.519" width="403.573" height="126.653" transform="matrix(1,0,0,1,0,0)" fill="none" mask="url(#_mask_GkGXXGSmbMzcfVkvj7kxursKlCrNKRPT)" vector-effect="non-scaling-stroke" stroke-width="8" stroke="rgb(0,0,0)" stroke-linejoin="miter" stroke-linecap="square" stroke-miterlimit="2"/><g clip-path="url(#_clipPath_OzzAiCVz3z8ZWZkf9hbmqOqH4dVoal2H)"><text transform="matrix(1,0,0,1,167.417,269.791)" style="font-family:'Overpass Mono';font-weight:400;font-size:44px;font-style:normal;fill:#000000;stroke:none;">Convolutional</text><text transform="matrix(1,0,0,1,180.969,325.495)" style="font-family:'Overpass Mono';font-weight:400;font-size:44px;font-style:normal;fill:#000000;stroke:none;">Block 32x5x2</text></g><defs><clipPath id="_clipPath_OzzAiCVz3z8ZWZkf9hbmqOqH4dVoal2H"><rect x="0" y="0" width="355" height="111.408" transform="matrix(1,0,0,1,167.093,226.583)"/></clipPath></defs><g clip-path="url(#_clipPath_lJKQk8aZDXPRNleLoLpeT7xOzxWEdeYq)"><text transform="matrix(1,0,0,1,712.917,272.349)" style="font-family:'Overpass Mono';font-weight:400;font-size:44px;font-style:normal;fill:#000000;stroke:none;">Convolutional</text><text transform="matrix(1,0,0,1,726.469,328.053)" style="font-family:'Overpass Mono';font-weight:400;font-size:44px;font-style:normal;fill:#000000;stroke:none;">Block 64x5x2</text></g><defs><clipPath id="_clipPath_lJKQk8aZDXPRNleLoLpeT7xOzxWEdeYq"><rect x="0" y="0" width="355" height="111.408" transform="matrix(1,0,0,1,712.593,229.141)"/></clipPath></defs><g clip-path="url(#_clipPath_SB4wpwDu3OMxmPe5p54S7C5G2SlpvxSQ)"><text transform="matrix(1,0,0,1,275.833,485.389)" style="font-family:'Overpass Mono';font-weight:400;font-size:44px;font-style:normal;fill:#000000;stroke:none;">Batch</text><text transform="matrix(1,0,0,1,167.417,541.093)" style="font-family:'Overpass Mono';font-weight:400;font-size:44px;font-style:normal;fill:#000000;stroke:none;">Normalization</text></g><defs><clipPath id="_clipPath_SB4wpwDu3OMxmPe5p54S7C5G2SlpvxSQ"><rect x="0" y="0" width="355" height="111.408" transform="matrix(1,0,0,1,167.093,442.181)"/></clipPath></defs><g clip-path="url(#_clipPath_RICrlpVIbznCGsOOfzB4TKO9jXNCFqG2)"><text transform="matrix(1,0,0,1,821.333,485.389)" style="font-family:'Overpass Mono';font-weight:400;font-size:44px;font-style:normal;fill:#000000;stroke:none;">Batch</text><text transform="matrix(1,0,0,1,712.917,541.093)" style="font-family:'Overpass Mono';font-weight:400;font-size:44px;font-style:normal;fill:#000000;stroke:none;">Normalization</text></g><defs><clipPath id="_clipPath_RICrlpVIbznCGsOOfzB4TKO9jXNCFqG2"><rect x="0" y="0" width="355" height="111.408" transform="matrix(1,0,0,1,712.593,442.181)"/></clipPath></defs><g clip-path="url(#_clipPath_t97PDy1rwIEGIdtyxkBSfcatYyMVnDN0)"><text transform="matrix(1,0,0,1,2141.121,477.74)" style="font-family:'Overpass Mono';font-weight:400;font-size:44px;font-style:normal;fill:#000000;stroke:none;">Batch</text><text transform="matrix(1,0,0,1,2032.705,533.444)" style="font-family:'Overpass Mono';font-weight:400;font-size:44px;font-style:normal;fill:#000000;stroke:none;">Normalization</text></g><defs><clipPath id="_clipPath_t97PDy1rwIEGIdtyxkBSfcatYyMVnDN0"><rect x="0" y="0" width="355" height="111.408" transform="matrix(1,0,0,1,2032.381,434.532)"/></clipPath></defs><g clip-path="url(#_clipPath_j3melyMLz3TzUf4alXw55pO9qYtz2ceU)"><text transform="matrix(1,0,0,1,1285,606.925)" style="font-family:'Overpass Mono';font-weight:400;font-size:44px;font-style:normal;fill:#000000;stroke:none;">Global Mean</text><text transform="matrix(1,0,0,1,1340,662.629)" style="font-family:'Overpass Mono';font-weight:400;font-size:44px;font-style:normal;fill:#000000;stroke:none;">Pooling</text></g><defs><clipPath id="_clipPath_j3melyMLz3TzUf4alXw55pO9qYtz2ceU"><rect x="0" y="0" width="301" height="111.408" transform="matrix(1,0,0,1,1270.012,563.717)"/></clipPath></defs><g clip-path="url(#_clipPath_RKDhgZLX4jUUKjYo4AGLztz9RyIIdo4l)"><text transform="matrix(1,0,0,1,2507.183,505.592)" style="font-family:'Overpass Mono';font-weight:400;font-size:44px;font-style:normal;fill:#000000;stroke:none;">Dropout</text></g><defs><clipPath id="_clipPath_RKDhgZLX4jUUKjYo4AGLztz9RyIIdo4l"><rect x="0" y="0" width="207.045" height="55.704" transform="matrix(1,0,0,1,2499.525,462.384)"/></clipPath></defs><g clip-path="url(#_clipPath_9frx4dAeshejKVxioQDGt2DNW6G8sgDL)"><text transform="matrix(1,0,0,1,1725.683,505.592)" style="font-family:'Overpass Mono';font-weight:400;font-size:44px;font-style:normal;fill:#000000;stroke:none;">Flatten</text></g><defs><clipPath id="_clipPath_9frx4dAeshejKVxioQDGt2DNW6G8sgDL"><rect x="0" y="0" width="207.045" height="55.704" transform="matrix(1,0,0,1,1718.025,462.384)"/></clipPath></defs><g clip-path="url(#_clipPath_iA1sXDnEQN3LkUeU00w7EXlWhxs0oX4U)"><text transform="matrix(1,0,0,1,1263.336,362.069)" style="font-family:'Overpass Mono';font-weight:400;font-size:44px;font-style:normal;fill:#000000;stroke:none;">Convolutional</text><text transform="matrix(1,0,0,1,1263.336,417.773)" style="font-family:'Overpass Mono';font-weight:400;font-size:44px;font-style:normal;fill:#000000;stroke:none;">Block 128x5x2</text></g><defs><clipPath id="_clipPath_iA1sXDnEQN3LkUeU00w7EXlWhxs0oX4U"><rect x="0" y="0" width="355" height="111.408" transform="matrix(1,0,0,1,1243.012,318.861)"/></clipPath></defs><g clip-path="url(#_clipPath_0ibmEoU0zQabaC0nMoMNSUeW0tYK1X3J)"><text transform="matrix(1,0,0,1,257.229,729.643)" style="font-family:'Overpass Mono';font-weight:400;font-size:44px;font-style:normal;fill:#000000;stroke:none;">Dropout</text></g><defs><clipPath id="_clipPath_0ibmEoU0zQabaC0nMoMNSUeW0tYK1X3J"><rect x="0" y="0" width="192" height="55.704" transform="matrix(1,0,0,1,257.093,686.435)"/></clipPath></defs><g clip-path="url(#_clipPath_JHs3jgijppHZc96SfQsFu1Sjh9WukIg8)"><text transform="matrix(1,0,0,1,794.229,732.201)" style="font-family:'Overpass Mono';font-weight:400;font-size:44px;font-style:normal;fill:#000000;stroke:none;">Dropout</text></g><defs><clipPath id="_clipPath_JHs3jgijppHZc96SfQsFu1Sjh9WukIg8"><rect x="0" y="0" width="192" height="55.704" transform="matrix(1,0,0,1,794.093,688.993)"/></clipPath></defs><line x1="353.093" y1="345.613" x2="353.093" y2="432" vector-effect="non-scaling-stroke" stroke-width="4" stroke="rgb(0,0,0)" stroke-linejoin="miter" stroke-linecap="square" stroke-miterlimit="3"/><line x1="1433.213" y1="437.892" x2="1433.213" y2="552.761" vector-effect="non-scaling-stroke" stroke-width="4" stroke="rgb(0,0,0)" stroke-linejoin="miter" stroke-linecap="square" stroke-miterlimit="3"/><line x1="353.093" y1="558.653" x2="353.093" y2="650.96" vector-effect="non-scaling-stroke" stroke-width="4" stroke="rgb(0,0,0)" stroke-linejoin="miter" stroke-linecap="square" stroke-miterlimit="3"/><line x1="890.093" y1="561.212" x2="890.093" y2="653.519" vector-effect="non-scaling-stroke" stroke-width="4" stroke="rgb(0,0,0)" stroke-linejoin="miter" stroke-linecap="square" stroke-miterlimit="3"/><line x1="890.093" y1="348.172" x2="890.093" y2="432.068" vector-effect="non-scaling-stroke" stroke-width="4" stroke="rgb(0,0,0)" stroke-linejoin="miter" stroke-linecap="square" stroke-miterlimit="3"/><line x1="554.88" y1="714.287" x2="619.28" y2="714.287" vector-effect="non-scaling-stroke" stroke-width="4" stroke="rgb(0,0,0)" stroke-linejoin="miter" stroke-linecap="square" stroke-miterlimit="3"/><line x1="1091.88" y1="716.845" x2="1156.28" y2="716.845" vector-effect="non-scaling-stroke" stroke-width="4" stroke="rgb(0,0,0)" stroke-linejoin="miter" stroke-linecap="square" stroke-miterlimit="3"/><polygon points="353.093,434.5,340.392,412.5,365.795,412.5" fill="rgb(0,0,0)"/><polygon points="690.093,284.845,668.093,297.547,668.093,272.144" fill="rgb(0,0,0)"/><polygon points="1231.427,374.565,1209.427,387.267,1209.427,361.864" fill="rgb(0,0,0)"/><polygon points="2011.489,495.139,1989.489,507.841,1989.489,482.437" fill="rgb(0,0,0)"/><polygon points="2489.807,497.885,2467.807,510.587,2467.807,485.184" fill="rgb(0,0,0)"/><polygon points="1709.26,497.885,1687.26,510.587,1687.26,485.184" fill="rgb(0,0,0)"/><polygon points="1433.213,560.011,1420.512,538.011,1445.915,538.011" fill="rgb(0,0,0)"/><polygon points="353.093,654.225,340.392,632.225,365.795,632.225" fill="rgb(0,0,0)"/><polygon points="890.093,656.784,877.392,634.784,902.795,634.784" fill="rgb(0,0,0)"/><polygon points="890.093,438.167,877.392,416.167,902.795,416.167" fill="rgb(0,0,0)"/><line x1="688.307" y1="284.845" x2="619.28" y2="284.845" vector-effect="non-scaling-stroke" stroke-width="4" stroke="rgb(0,0,0)" stroke-linejoin="miter" stroke-linecap="square" stroke-miterlimit="3"/><line x1="619.28" y1="284.845" x2="619.28" y2="714.287" vector-effect="non-scaling-stroke" stroke-width="4" stroke="rgb(0,0,0)" stroke-linejoin="miter" stroke-linecap="square" stroke-miterlimit="3"/><line x1="1228.307" y1="374.565" x2="1156.28" y2="374.565" vector-effect="non-scaling-stroke" stroke-width="4" stroke="rgb(0,0,0)" stroke-linejoin="miter" stroke-linecap="square" stroke-miterlimit="3"/><line x1="1156.28" y1="374.565" x2="1156.28" y2="716.845" vector-effect="non-scaling-stroke" stroke-width="4" stroke="rgb(0,0,0)" stroke-linejoin="miter" stroke-linecap="square" stroke-miterlimit="3"/><line x1="1705.307" y1="497.885" x2="1667" y2="497.885" vector-effect="non-scaling-stroke" stroke-width="4" stroke="rgb(0,0,0)" stroke-linejoin="miter" stroke-linecap="square" stroke-miterlimit="3"/><line x1="1631.88" y1="619.421" x2="1667" y2="619.421" vector-effect="non-scaling-stroke" stroke-width="4" stroke="rgb(0,0,0)" stroke-linejoin="miter" stroke-linecap="square" stroke-miterlimit="3"/><line x1="1667" y1="619.421" x2="1667" y2="497.885" vector-effect="non-scaling-stroke" stroke-width="4" stroke="rgb(0,0,0)" stroke-linejoin="miter" stroke-linecap="square" stroke-miterlimit="3"/><line x1="1937.788" y1="495.327" x2="2008.095" y2="495.327" vector-effect="non-scaling-stroke" stroke-width="4" stroke="rgb(0,0,0)" stroke-linejoin="miter" stroke-linecap="square" stroke-miterlimit="3"/><line x1="2413.105" y1="498.073" x2="2483.412" y2="498.073" vector-effect="non-scaling-stroke" stroke-width="4" stroke="rgb(0,0,0)" stroke-linejoin="miter" stroke-linecap="square" stroke-miterlimit="3"/></g></svg>