<?xml version="1.0" encoding="UTF-8" standalone="no"?>
<!-- Generator: Gravit.io -->
<svg xmlns="http://www.w3.org/2000/svg" xmlns:xlink="http://www.w3.org/1999/xlink" style="isolation:isolate" viewBox="0 0 2880 864" width="2880pt" height="864pt"><defs><clipPath id="_clipPath_TpuBJk4WqSKNiHS6N9scW9ylnwNS8En5"><rect width="2880" height="864"/></clipPath></defs><g clip-path="url(#_clipPath_TpuBJk4WqSKNiHS6N9scW9ylnwNS8En5)"><g clip-path="url(#_clipPath_Z4mVgLjv4YiQS6kYFOs2rmxBQDyjxxVQ)"><text transform="matrix(1,0,0,1,1017.5,109.344)" style="font-family:'Overpass Mono';font-weight:400;font-size:72px;font-style:normal;fill:#000000;stroke:none;">Convolutional Chain</text></g><defs><clipPath id="_clipPath_Z4mVgLjv4YiQS6kYFOs2rmxBQDyjxxVQ"><rect x="0" y="0" width="845" height="91.152" transform="matrix(1,0,0,1,1017.5,38.64)"/></clipPath></defs><mask id="_mask_OPDhsZFrTBHYkvaYR1aYUraLZ5YyHCUa"><rect x="151.307" y="218.96" width="403.573" height="126.653" fill="white" stroke="none"/></mask><rect x="151.307" y="218.96" width="403.573" height="126.653" transform="matrix(1,0,0,1,0,0)" fill="none"/><rect x="151.307" y="218.96" width="403.573" height="126.653" transform="matrix(1,0,0,1,0,0)" fill="none" mask="url(#_mask_OPDhsZFrTBHYkvaYR1aYUraLZ5YyHCUa)" vector-effect="non-scaling-stroke" stroke-width="8" stroke="rgb(0,0,0)" stroke-linejoin="miter" stroke-linecap="square" stroke-miterlimit="2"/><mask id="_mask_7vhFlS9GL1fvCwsT0V4U1APHsD7LuU7l"><rect x="688.307" y="221.519" width="403.573" height="126.653" fill="white" stroke="none"/></mask><rect x="688.307" y="221.519" width="403.573" height="126.653" transform="matrix(1,0,0,1,0,0)" fill="none"/><rect x="688.307" y="221.519" width="403.573" height="126.653" transform="matrix(1,0,0,1,0,0)" fill="none" mask="url(#_mask_7vhFlS9GL1fvCwsT0V4U1APHsD7LuU7l)" vector-effect="non-scaling-stroke" stroke-width="8" stroke="rgb(0,0,0)" stroke-linejoin="miter" stroke-linecap="square" stroke-miterlimit="2"/><mask id="_mask_VRXUzpTFSHGj92zSL4JhqB5Oh0XygN5w"><rect x="151.307" y="218.96" width="403.573" height="126.653" fill="white" stroke="none"/></mask><rect x="151.307" y="218.96" width="403.573" height="126.653" transform="matrix(1,0,0,1,0,0)" fill="none"/><rect x="151.307" y="218.96" width="403.573" height="126.653" transform="matrix(1,0,0,1,0,0)" fill="none" mask="url(#_mask_VRXUzpTFSHGj92zSL4JhqB5Oh0XygN5w)" vector-effect="non-scaling-stroke" stroke-width="8" stroke="rgb(0,0,0)" stroke-linejoin="miter" stroke-linecap="square" stroke-miterlimit="2"/><mask id="_mask_milD53iSsjkfgD1eEwlXCgu6BRAUv53u"><rect x="688.307" y="221.519" width="403.573" height="126.653" fill="white" stroke="none"/></mask><rect x="688.307" y="221.519" width="403.573" height="126.653" transform="matrix(1,0,0,1,0,0)" fill="none"/><rect x="688.307" y="221.519" width="403.573" height="126.653" transform="matrix(1,0,0,1,0,0)" fill="none" mask="url(#_mask_milD53iSsjkfgD1eEwlXCgu6BRAUv53u)" vector-effect="non-scaling-stroke" stroke-width="8" stroke="rgb(0,0,0)" stroke-linejoin="miter" stroke-linecap="square" stroke-miterlimit="2"/><mask id="_mask_27PKoa9m0POny64SYALZjc8nrftkQfYm"><rect x="151.307" y="432" width="403.573" height="126.653" fill="white" stroke="none"/></mask><rect x="151.307" y="432" width="403.573" height="126.653" transform="matrix(1,0,0,1,0,0)" fill="none"/><rect x="151.307" y="432" width="403.573" height="126.653" transform="matrix(1,0,0,1,0,0)" fill="none" mask="url(#_mask_27PKoa9m0POny64SYALZjc8nrftkQfYm)" vector-effect="non-scaling-stroke" stroke-width="8" stroke="rgb(0,0,0)" stroke-linejoin="miter" stroke-linecap="square" stroke-miterlimit="2"/><mask id="_mask_tmZP4Kp4BwC2EYPLSZMCmuxd2pP9XlIu"><rect x="688.307" y="434.559" width="403.573" height="126.653" fill="white" stroke="none"/></mask><rect x="688.307" y="434.559" width="403.573" height="126.653" transform="matrix(1,0,0,1,0,0)" fill="none"/><rect x="688.307" y="434.559" width="403.573" height="126.653" transform="matrix(1,0,0,1,0,0)" fill="none" mask="url(#_mask_tmZP4Kp4BwC2EYPLSZMCmuxd2pP9XlIu)" vector-effect="non-scaling-stroke" stroke-width="8" stroke="rgb(0,0,0)" stroke-linejoin="miter" stroke-linecap="square" stroke-miterlimit="2"/><mask id="_mask_BAMHNjO35To3DdLo1vBU4SPAZfl0lCAi"><rect x="2008.095" y="429.441" width="403.573" height="126.653" fill="white" stroke="none"/></mask><rect x="2008.095" y="429.441" width="403.573" height="126.653" transform="matrix(1,0,0,1,0,0)" fill="none"/><rect x="2008.095" y="429.441" width="403.573" height="126.653" transform="matrix(1,0,0,1,0,0)" fill="none" mask="url(#_mask_BAMHNjO35To3DdLo1vBU4SPAZfl0lCAi)" vector-effect="non-scaling-stroke" stroke-width="8" stroke="rgb(0,0,0)" stroke-linejoin="miter" stroke-linecap="square" stroke-miterlimit="2"/><mask id="_mask_PoOwPlNOjavr0lCCUU8tgObUJ4aXTdFl"><rect x="1231.427" y="556.095" width="403.573" height="126.653" fill="white" stroke="none"/></mask><rect x="1231.427" y="556.095" width="403.573" height="126.653" transform="matrix(1,0,0,1,0,0)" fill="none"/><rect x="1231.427" y="556.095" width="403.573" height="126.653" transform="matrix(1,0,0,1,0,0)" fill="none" mask="url(#_mask_PoOwPlNOjavr0lCCUU8tgObUJ4aXTdFl)" vector-effect="non-scaling-stroke" stroke-width="8" stroke="rgb(0,0,0)" stroke-linejoin="miter" stroke-linecap="square" stroke-miterlimit="2"/><mask id="_mask_mvRhU1HUgXO5DWqm05ym0dvyit2w2VwS"><rect x="1228.307" y="311.239" width="403.573" height="126.653" fill="white" stroke="none"/></mask><rect x="1228.307" y="311.239" width="403.573" height="126.653" transform="matrix(1,0,0,1,0,0)" fill="none"/><rect x="1228.307" y="311.239" width="403.573" height="126.653" transform="matrix(1,0,0,1,0,0)" fill="none" mask="url(#_mask_mvRhU1HUgXO5DWqm05ym0dvyit2w2VwS)" vector-effect="non-scaling-stroke" stroke-width="8" stroke="rgb(0,0,0)" stroke-linejoin="miter" stroke-linecap="square" stroke-miterlimit="2"/><mask id="_mask_6O5xmae9BvewG9vJ2ZC94qFSD3j0dbWn"><rect x="151.307" y="432" width="403.573" height="126.653" fill="white" stroke="none"/></mask><rect x="151.307" y="432" width="403.573" height="126.653" transform="matrix(1,0,0,1,0,0)" fill="none"/><rect x="151.307" y="432" width="403.573" height="126.653" transform="matrix(1,0,0,1,0,0)" fill="none" mask="url(#_mask_6O5xmae9BvewG9vJ2ZC94qFSD3j0dbWn)" vector-effect="non-scaling-stroke" stroke-width="8" stroke="rgb(0,0,0)" stroke-linejoin="miter" stroke-linecap="square" stroke-miterlimit="2"/><mask id="_mask_BqIoZfpm1hyurdP1McgQsgYmhVLFVvxy"><rect x="688.307" y="434.559" width="403.573" height="126.653" fill="white" stroke="none"/></mask><rect x="688.307" y="434.559" width="403.573" height="126.653" transform="matrix(1,0,0,1,0,0)" fill="none"/><rect x="688.307" y="434.559" width="403.573" height="126.653" transform="matrix(1,0,0,1,0,0)" fill="none" mask="url(#_mask_BqIoZfpm1hyurdP1McgQsgYmhVLFVvxy)" vector-effect="non-scaling-stroke" stroke-width="8" stroke="rgb(0,0,0)" stroke-linejoin="miter" stroke-linecap="square" stroke-miterlimit="2"/><mask id="_mask_CJ3W3dIvKROToIYa7Lz5jtjTTzzc64rd"><rect x="2008.095" y="429.441" width="403.573" height="126.653" fill="white" stroke="none"/></mask><rect x="2008.095" y="429.441" width="403.573" height="126.653" transform="matrix(1,0,0,1,0,0)" fill="none"/><rect x="2008.095" y="429.441" width="403.573" height="126.653" transform="matrix(1,0,0,1,0,0)" fill="none" mask="url(#_mask_CJ3W3dIvKROToIYa7Lz5jtjTTzzc64rd)" vector-effect="non-scaling-stroke" stroke-width="8" stroke="rgb(0,0,0)" stroke-linejoin="miter" stroke-linecap="square" stroke-miterlimit="2"/><mask id="_mask_YjgG8QWZPsFcbcFF8Iv7cZvE3qYlRpbO"><rect x="1705.307" y="429.441" width="232.481" height="126.653" fill="white" stroke="none"/></mask><rect x="1705.307" y="429.441" width="232.481" height="126.653" transform="matrix(1,0,0,1,0,0)" fill="none"/><rect x="1705.307" y="429.441" width="232.481" height="126.653" transform="matrix(1,0,0,1,0,0)" fill="none" mask="url(#_mask_YjgG8QWZPsFcbcFF8Iv7cZvE3qYlRpbO)" vector-effect="non-scaling-stroke" stroke-width="8" stroke="rgb(0,0,0)" stroke-linejoin="miter" stroke-linecap="square" stroke-miterlimit="2"/><mask id="_mask_9j8jNNeNnTXpIExTJlwUcKoniL2Ly3Ri"><rect x="2486.807" y="429.441" width="232.481" height="126.653" fill="white" stroke="none"/></mask><rect x="2486.807" y="429.441" width="232.481" height="126.653" transform="matrix(1,0,0,1,0,0)" fill="none"/><rect x="2486.807" y="429.441" width="232.481" height="126.653" transform="matrix(1,0,0,1,0,0)" fill="none" mask="url(#_mask_9j8jNNeNnTXpIExTJlwUcKoniL2Ly3Ri)" vector-effect="non-scaling-stroke" stroke-width="8" stroke="rgb(0,0,0)" stroke-linejoin="miter" stroke-linecap="square" stroke-miterlimit="2"/><mask id="_mask_HYxkYFqXAO78DZn4aMqzINoHxs7ho2SW"><rect x="1228.307" y="311.239" width="403.573" height="126.653" fill="white" stroke="none"/></mask><rect x="1228.307" y="311.239" width="403.573" height="126.653" transform="matrix(1,0,0,1,0,0)" fill="none"/><rect x="1228.307" y="311.239" width="403.573" height="126.653" transform="matrix(1,0,0,1,0,0)" fill="none" mask="url(#_mask_HYxkYFqXAO78DZn4aMqzINoHxs7ho2SW)" vector-effect="non-scaling-stroke" stroke-width="8" stroke="rgb(0,0,0)" stroke-linejoin="miter" stroke-linecap="square" stroke-miterlimit="2"/><mask id="_mask_DYCaTTweI0ZulFcncgH92w4L0zb35EOc"><rect x="151.307" y="650.96" width="403.573" height="126.653" fill="white" stroke="none"/></mask><rect x="151.307" y="650.96" width="403.573" height="126.653" transform="matrix(1,0,0,1,0,0)" fill="none"/><rect x="151.307" y="650.96" width="403.573" height="126.653" transform="matrix(1,0,0,1,0,0)" fill="none" mask="url(#_mask_DYCaTTweI0ZulFcncgH92w4L0zb35EOc)" vector-effect="non-scaling-stroke" stroke-width="8" stroke="rgb(0,0,0)" stroke-linejoin="miter" stroke-linecap="square" stroke-miterlimit="2"/><mask id="_mask_lLqlkhqWYdEF6z1phfNbi4a6EcBVSI8Y"><rect x="688.307" y="653.519" width="403.573" height="126.653" fill="white" stroke="none"/></mask><rect x="688.307" y="653.519" width="403.573" height="126.653" transform="matrix(1,0,0,1,0,0)" fill="none"/><rect x="688.307" y="653.519" width="403.573" height="126.653" transform="matrix(1,0,0,1,0,0)" fill="none" mask="url(#_mask_lLqlkhqWYdEF6z1phfNbi4a6EcBVSI8Y)" vector-effect="non-scaling-stroke" stroke-width="8" stroke="rgb(0,0,0)" stroke-linejoin="miter" stroke-linecap="square" stroke-miterlimit="2"/><mask id="_mask_gDZ4AvSLJv7auYpDNiftr9yKrbqrNdzw"><rect x="151.307" y="650.96" width="403.573" height="126.653" fill="white" stroke="none"/></mask><rect x="151.307" y="650.96" width="403.573" height="126.653" transform="matrix(1,0,0,1,0,0)" fill="none"/><rect x="151.307" y="650.96" width="403.573" height="126.653" transform="matrix(1,0,0,1,0,0)" fill="none" mask="url(#_mask_gDZ4AvSLJv7auYpDNiftr9yKrbqrNdzw)" vector-effect="non-scaling-stroke" stroke-width="8" stroke="rgb(0,0,0)" stroke-linejoin="miter" stroke-linecap="square" stroke-miterlimit="2"/><mask id="_mask_OTCFtVHWSTy5poviFlV4iiE5sUzhDDly"><rect x="688.307" y="653.519" width="403.573" height="126.653" fill="white" stroke="none"/></mask><rect x="688.307" y="653.519" width="403.573" height="126.653" transform="matrix(1,0,0,1,0,0)" fill="none"/><rect x="688.307" y="653.519" width="403.573" height="126.653" transform="matrix(1,0,0,1,0,0)" fill="none" mask="url(#_mask_OTCFtVHWSTy5poviFlV4iiE5sUzhDDly)" vector-effect="non-scaling-stroke" stroke-width="8" stroke="rgb(0,0,0)" stroke-linejoin="miter" stroke-linecap="square" stroke-miterlimit="2"/><g clip-path="url(#_clipPath_PQ6rHzWzr2boizL8DQE2PLRVUvF1Rsrj)"><text transform="matrix(1,0,0,1,159.901,268.655)" style="font-family:'Overpass Mono';font-weight:400;font-size:48px;font-style:normal;fill:#000000;stroke:none;">Convolutional</text><text transform="matrix(1,0,0,1,174.685,329.423)" style="font-family:'Overpass Mono';font-weight:400;font-size:48px;font-style:normal;fill:#000000;stroke:none;">Block 32x5x2</text></g><defs><clipPath id="_clipPath_PQ6rHzWzr2boizL8DQE2PLRVUvF1Rsrj"><rect x="0" y="0" width="387" height="121.536" transform="matrix(1,0,0,1,159.593,221.519)"/></clipPath></defs><g clip-path="url(#_clipPath_tC2NZfRzJL9EuqCBqauroFjVhuJr9cNQ)"><text transform="matrix(1,0,0,1,696.901,271.213)" style="font-family:'Overpass Mono';font-weight:400;font-size:48px;font-style:normal;fill:#000000;stroke:none;">Convolutional</text><text transform="matrix(1,0,0,1,711.685,331.981)" style="font-family:'Overpass Mono';font-weight:400;font-size:48px;font-style:normal;fill:#000000;stroke:none;">Block 64x5x2</text></g><defs><clipPath id="_clipPath_tC2NZfRzJL9EuqCBqauroFjVhuJr9cNQ"><rect x="0" y="0" width="387" height="121.536" transform="matrix(1,0,0,1,696.593,224.077)"/></clipPath></defs><g clip-path="url(#_clipPath_r3cOAbwWOQNHYCczn6PhCF00zofDY0Ke)"><text transform="matrix(1,0,0,1,278.173,481.695)" style="font-family:'Overpass Mono';font-weight:400;font-size:48px;font-style:normal;fill:#000000;stroke:none;">Batch</text><text transform="matrix(1,0,0,1,159.901,542.463)" style="font-family:'Overpass Mono';font-weight:400;font-size:48px;font-style:normal;fill:#000000;stroke:none;">Normalization</text></g><defs><clipPath id="_clipPath_r3cOAbwWOQNHYCczn6PhCF00zofDY0Ke"><rect x="0" y="0" width="387" height="121.536" transform="matrix(1,0,0,1,159.593,434.559)"/></clipPath></defs><g clip-path="url(#_clipPath_KftV3ToHD7gJIm5kxFO4snkhqdxb2eyw)"><text transform="matrix(1,0,0,1,815.173,484.253)" style="font-family:'Overpass Mono';font-weight:400;font-size:48px;font-style:normal;fill:#000000;stroke:none;">Batch</text><text transform="matrix(1,0,0,1,696.901,545.021)" style="font-family:'Overpass Mono';font-weight:400;font-size:48px;font-style:normal;fill:#000000;stroke:none;">Normalization</text></g><defs><clipPath id="_clipPath_KftV3ToHD7gJIm5kxFO4snkhqdxb2eyw"><rect x="0" y="0" width="387" height="121.536" transform="matrix(1,0,0,1,696.593,437.117)"/></clipPath></defs><g clip-path="url(#_clipPath_gik50xum1d55rOVQkPrMNLengWku4Rsq)"><text transform="matrix(1,0,0,1,2134.961,479.136)" style="font-family:'Overpass Mono';font-weight:400;font-size:48px;font-style:normal;fill:#000000;stroke:none;">Batch</text><text transform="matrix(1,0,0,1,2016.689,539.904)" style="font-family:'Overpass Mono';font-weight:400;font-size:48px;font-style:normal;fill:#000000;stroke:none;">Normalization</text></g><defs><clipPath id="_clipPath_gik50xum1d55rOVQkPrMNLengWku4Rsq"><rect x="0" y="0" width="387" height="121.536" transform="matrix(1,0,0,1,2016.381,432)"/></clipPath></defs><g clip-path="url(#_clipPath_fwiCGvzoCElTnuIBceqNae5dHeeVtaJY)"><text transform="matrix(1,0,0,1,1266.469,605.789)" style="font-family:'Overpass Mono';font-weight:400;font-size:48px;font-style:normal;fill:#000000;stroke:none;">Global Mean</text><text transform="matrix(1,0,0,1,1325.605,666.557)" style="font-family:'Overpass Mono';font-weight:400;font-size:48px;font-style:normal;fill:#000000;stroke:none;">Pooling</text></g><defs><clipPath id="_clipPath_fwiCGvzoCElTnuIBceqNae5dHeeVtaJY"><rect x="0" y="0" width="328" height="121.536" transform="matrix(1,0,0,1,1266.093,558.653)"/></clipPath></defs><g clip-path="url(#_clipPath_EFE6iM67nCEd53IwvwSpIZY0J3h8AhxL)"><text transform="matrix(1,0,0,1,2495.955,509.52)" style="font-family:'Overpass Mono';font-weight:400;font-size:48px;font-style:normal;fill:#000000;stroke:none;">Dropout</text></g><defs><clipPath id="_clipPath_EFE6iM67nCEd53IwvwSpIZY0J3h8AhxL"><rect x="0" y="0" width="207.045" height="60.768" transform="matrix(1,0,0,1,2495.955,462.384)"/></clipPath></defs><g clip-path="url(#_clipPath_dlxjAd2Wqgv6Ma6LYEjqUd5ekRliXOcS)"><text transform="matrix(1,0,0,1,1714.455,509.52)" style="font-family:'Overpass Mono';font-weight:400;font-size:48px;font-style:normal;fill:#000000;stroke:none;">Flatten</text></g><defs><clipPath id="_clipPath_dlxjAd2Wqgv6Ma6LYEjqUd5ekRliXOcS"><rect x="0" y="0" width="207.045" height="60.768" transform="matrix(1,0,0,1,1714.455,462.384)"/></clipPath></defs><g clip-path="url(#_clipPath_Q1H1vqof7gj2w5yKRdFpvxA7A1V78jcu)"><text transform="matrix(1,0,0,1,1236.901,360.933)" style="font-family:'Overpass Mono';font-weight:400;font-size:48px;font-style:normal;fill:#000000;stroke:none;">Convolutional</text><text transform="matrix(1,0,0,1,1236.901,421.701)" style="font-family:'Overpass Mono';font-weight:400;font-size:48px;font-style:normal;fill:#000000;stroke:none;">Block 128x5x2</text></g><defs><clipPath id="_clipPath_Q1H1vqof7gj2w5yKRdFpvxA7A1V78jcu"><rect x="0" y="0" width="387" height="121.536" transform="matrix(1,0,0,1,1236.593,313.797)"/></clipPath></defs><g clip-path="url(#_clipPath_QvEMcbymPIq7yZXjI5PrQBsj1Cl0w0TR)"><text transform="matrix(1,0,0,1,248.605,731.039)" style="font-family:'Overpass Mono';font-weight:400;font-size:48px;font-style:normal;fill:#000000;stroke:none;">Dropout</text></g><defs><clipPath id="_clipPath_QvEMcbymPIq7yZXjI5PrQBsj1Cl0w0TR"><rect x="0" y="0" width="209" height="60.768" transform="matrix(1,0,0,1,248.593,683.903)"/></clipPath></defs><g clip-path="url(#_clipPath_R7a84I2GBnZCbZMHuf3Ub4URa5pguinR)"><text transform="matrix(1,0,0,1,785.605,733.597)" style="font-family:'Overpass Mono';font-weight:400;font-size:48px;font-style:normal;fill:#000000;stroke:none;">Dropout</text></g><defs><clipPath id="_clipPath_R7a84I2GBnZCbZMHuf3Ub4URa5pguinR"><rect x="0" y="0" width="209" height="60.768" transform="matrix(1,0,0,1,785.593,686.461)"/></clipPath></defs><line x1="353.093" y1="345.613" x2="353.093" y2="432" vector-effect="non-scaling-stroke" stroke-width="4" stroke="rgb(0,0,0)" stroke-linejoin="miter" stroke-linecap="square" stroke-miterlimit="3"/><line x1="1433.213" y1="437.892" x2="1433.213" y2="552.761" vector-effect="non-scaling-stroke" stroke-width="4" stroke="rgb(0,0,0)" stroke-linejoin="miter" stroke-linecap="square" stroke-miterlimit="3"/><line x1="353.093" y1="558.653" x2="353.093" y2="650.96" vector-effect="non-scaling-stroke" stroke-width="4" stroke="rgb(0,0,0)" stroke-linejoin="miter" stroke-linecap="square" stroke-miterlimit="3"/><line x1="890.093" y1="561.212" x2="890.093" y2="653.519" vector-effect="non-scaling-stroke" stroke-width="4" stroke="rgb(0,0,0)" stroke-linejoin="miter" stroke-linecap="square" stroke-miterlimit="3"/><line x1="890.093" y1="348.172" x2="890.093" y2="432.068" vector-effect="non-scaling-stroke" stroke-width="4" stroke="rgb(0,0,0)" stroke-linejoin="miter" stroke-linecap="square" stroke-miterlimit="3"/><line x1="554.88" y1="714.287" x2="619.28" y2="714.287" vector-effect="non-scaling-stroke" stroke-width="4" stroke="rgb(0,0,0)" stroke-linejoin="miter" stroke-linecap="square" stroke-miterlimit="3"/><line x1="1091.88" y1="716.845" x2="1156.28" y2="716.845" vector-effect="non-scaling-stroke" stroke-width="4" stroke="rgb(0,0,0)" stroke-linejoin="miter" stroke-linecap="square" stroke-miterlimit="3"/><polygon points="353.093,434.5,340.392,412.5,365.795,412.5" fill="rgb(0,0,0)"/><polygon points="690.093,284.845,668.093,297.547,668.093,272.144" fill="rgb(0,0,0)"/><polygon points="1231.427,374.565,1209.427,387.267,1209.427,361.864" fill="rgb(0,0,0)"/><polygon points="2011.489,495.139,1989.489,507.841,1989.489,482.437" fill="rgb(0,0,0)"/><polygon points="2489.807,497.885,2467.807,510.587,2467.807,485.184" fill="rgb(0,0,0)"/><polygon points="1709.26,497.885,1687.26,510.587,1687.26,485.184" fill="rgb(0,0,0)"/><polygon points="1433.213,560.011,1420.512,538.011,1445.915,538.011" fill="rgb(0,0,0)"/><polygon points="353.093,654.225,340.392,632.225,365.795,632.225" fill="rgb(0,0,0)"/><polygon points="890.093,656.784,877.392,634.784,902.795,634.784" fill="rgb(0,0,0)"/><polygon points="890.093,438.167,877.392,416.167,902.795,416.167" fill="rgb(0,0,0)"/><line x1="688.307" y1="284.845" x2="619.28" y2="284.845" vector-effect="non-scaling-stroke" stroke-width="4" stroke="rgb(0,0,0)" stroke-linejoin="miter" stroke-linecap="square" stroke-miterlimit="3"/><line x1="619.28" y1="284.845" x2="619.28" y2="714.287" vector-effect="non-scaling-stroke" stroke-width="4" stroke="rgb(0,0,0)" stroke-linejoin="miter" stroke-linecap="square" stroke-miterlimit="3"/><line x1="1228.307" y1="374.565" x2="1156.28" y2="374.565" vector-effect="non-scaling-stroke" stroke-width="4" stroke="rgb(0,0,0)" stroke-linejoin="miter" stroke-linecap="square" stroke-miterlimit="3"/><line x1="1156.28" y1="374.565" x2="1156.28" y2="716.845" vector-effect="non-scaling-stroke" stroke-width="4" stroke="rgb(0,0,0)" stroke-linejoin="miter" stroke-linecap="square" stroke-miterlimit="3"/><line x1="1705.307" y1="497.885" x2="1667" y2="497.885" vector-effect="non-scaling-stroke" stroke-width="4" stroke="rgb(0,0,0)" stroke-linejoin="miter" stroke-linecap="square" stroke-miterlimit="3"/><line x1="1631.88" y1="619.421" x2="1667" y2="619.421" vector-effect="non-scaling-stroke" stroke-width="4" stroke="rgb(0,0,0)" stroke-linejoin="miter" stroke-linecap="square" stroke-miterlimit="3"/><line x1="1667" y1="619.421" x2="1667" y2="497.885" vector-effect="non-scaling-stroke" stroke-width="4" stroke="rgb(0,0,0)" stroke-linejoin="miter" stroke-linecap="square" stroke-miterlimit="3"/><line x1="1937.788" y1="495.327" x2="2008.095" y2="495.327" vector-effect="non-scaling-stroke" stroke-width="4" stroke="rgb(0,0,0)" stroke-linejoin="miter" stroke-linecap="square" stroke-miterlimit="3"/><line x1="2413.105" y1="498.073" x2="2483.412" y2="498.073" vector-effect="non-scaling-stroke" stroke-width="4" stroke="rgb(0,0,0)" stroke-linejoin="miter" stroke-linecap="square" stroke-miterlimit="3"/></g></svg>