<?xml version="1.0" encoding="UTF-8" standalone="no"?>
<!-- Generator: Gravit.io -->
<svg xmlns="http://www.w3.org/2000/svg" xmlns:xlink="http://www.w3.org/1999/xlink" style="isolation:isolate" viewBox="0 0 1440 720" width="1440pt" height="720pt"><defs><clipPath id="_clipPath_pjudpxzj3PPKp9Kj9bWNKZsFSuibUCE8"><rect width="1440" height="720"/></clipPath></defs><g clip-path="url(#_clipPath_pjudpxzj3PPKp9Kj9bWNKZsFSuibUCE8)"><mask id="_mask_7wbunm5fiUFOKdGvwGeoi0xcDgiNapVR"><rect x="66.96" y="178.88" width="363.12" height="363.12" fill="white" stroke="none"/></mask><rect x="66.96" y="178.88" width="363.12" height="363.12" transform="matrix(1,0,0,1,0,0)" fill="none"/><rect x="66.96" y="178.88" width="363.12" height="363.12" transform="matrix(1,0,0,1,0,0)" fill="none" mask="url(#_mask_7wbunm5fiUFOKdGvwGeoi0xcDgiNapVR)" vector-effect="non-scaling-stroke" stroke-width="8" stroke="rgb(0,0,0)" stroke-linejoin="miter" stroke-linecap="square" stroke-miterlimit="2"/><line x1="249.802" y1="182.538" x2="249.802" y2="539.75" vector-effect="non-scaling-stroke" stroke-width="4" stroke="rgb(0,0,0)" stroke-linejoin="miter" stroke-linecap="square" stroke-miterlimit="3"/><line x1="70.5" y1="361.58" x2="249.802" y2="361.58" vector-effect="non-scaling-stroke" stroke-width="4" stroke="rgb(0,0,0)" stroke-linejoin="miter" stroke-linecap="square" stroke-miterlimit="3"/><line x1="249.802" y1="361.58" x2="428.062" y2="361.58" vector-effect="non-scaling-stroke" stroke-width="4" stroke="rgb(0,0,0)" stroke-linejoin="miter" stroke-linecap="square" stroke-miterlimit="3"/><line x1="160.119" y1="360.792" x2="160.119" y2="181.75" vector-effect="non-scaling-stroke" stroke-width="4" stroke="rgb(0,0,0)" stroke-linejoin="miter" stroke-linecap="square" stroke-miterlimit="3"/><line x1="337.388" y1="360.792" x2="337.388" y2="181.75" vector-effect="non-scaling-stroke" stroke-width="4" stroke="rgb(0,0,0)" stroke-linejoin="miter" stroke-linecap="square" stroke-miterlimit="3"/><line x1="337.388" y1="539.75" x2="337.388" y2="362.958" vector-effect="non-scaling-stroke" stroke-width="4" stroke="rgb(0,0,0)" stroke-linejoin="miter" stroke-linecap="square" stroke-miterlimit="3"/><line x1="160.119" y1="539.75" x2="160.119" y2="362.958" vector-effect="non-scaling-stroke" stroke-width="4" stroke="rgb(0,0,0)" stroke-linejoin="miter" stroke-linecap="square" stroke-miterlimit="3"/><line x1="160.119" y1="268.513" x2="249.802" y2="268.513" vector-effect="non-scaling-stroke" stroke-width="4" stroke="rgb(0,0,0)" stroke-linejoin="miter" stroke-linecap="square" stroke-miterlimit="3"/><line x1="337.388" y1="268.513" x2="427.071" y2="268.513" vector-effect="non-scaling-stroke" stroke-width="4" stroke="rgb(0,0,0)" stroke-linejoin="miter" stroke-linecap="square" stroke-miterlimit="3"/><line x1="337.388" y1="449.722" x2="427.071" y2="449.722" vector-effect="non-scaling-stroke" stroke-width="4" stroke="rgb(0,0,0)" stroke-linejoin="miter" stroke-linecap="square" stroke-miterlimit="3"/><line x1="160.119" y1="449.722" x2="249.802" y2="449.722" vector-effect="non-scaling-stroke" stroke-width="4" stroke="rgb(0,0,0)" stroke-linejoin="miter" stroke-linecap="square" stroke-miterlimit="3"/><line x1="71.091" y1="268.513" x2="160.773" y2="268.513" vector-effect="non-scaling-stroke" stroke-width="4" stroke="rgb(0,0,0)" stroke-linejoin="miter" stroke-linecap="square" stroke-miterlimit="3"/><line x1="248.36" y1="268.513" x2="338.042" y2="268.513" vector-effect="non-scaling-stroke" stroke-width="4" stroke="rgb(0,0,0)" stroke-linejoin="miter" stroke-linecap="square" stroke-miterlimit="3"/><line x1="249.802" y1="449.722" x2="338.042" y2="449.722" vector-effect="non-scaling-stroke" stroke-width="4" stroke="rgb(0,0,0)" stroke-linejoin="miter" stroke-linecap="square" stroke-miterlimit="3"/><line x1="72.533" y1="449.722" x2="160.773" y2="449.722" vector-effect="non-scaling-stroke" stroke-width="4" stroke="rgb(0,0,0)" stroke-linejoin="miter" stroke-linecap="square" stroke-miterlimit="3"/><g><path d=" M 553.252 394.565 L 614.923 360.44 L 553.252 326.315 L 553.252 394.565 Z " fill="rgb(0,0,0)"/><rect x="477.875" y="349.065" width="95.934" height="22.75" transform="matrix(1,0,0,1,0,0)" fill="rgb(0,0,0)"/></g><mask id="_mask_1zEwRnZsfcohU44gB05YcP8dTfXQJurB"><rect x="655.125" y="326.315" width="68.25" height="68.25" fill="white" stroke="none"/></mask><rect x="655.125" y="326.315" width="68.25" height="68.25" transform="matrix(1,0,0,1,0,0)" fill="none"/><rect x="655.125" y="326.315" width="68.25" height="68.25" transform="matrix(1,0,0,1,0,0)" fill="none" mask="url(#_mask_1zEwRnZsfcohU44gB05YcP8dTfXQJurB)" vector-effect="non-scaling-stroke" stroke-width="6" stroke="rgb(0,0,0)" stroke-linejoin="miter" stroke-linecap="square" stroke-miterlimit="2"/><mask id="_mask_y19NkFt1uCaxRczLiR9hWH2SnTOiwclc"><rect x="720.125" y="326.315" width="68.25" height="68.25" fill="white" stroke="none"/></mask><rect x="720.125" y="326.315" width="68.25" height="68.25" transform="matrix(1,0,0,1,0,0)" fill="none"/><rect x="720.125" y="326.315" width="68.25" height="68.25" transform="matrix(1,0,0,1,0,0)" fill="none" mask="url(#_mask_y19NkFt1uCaxRczLiR9hWH2SnTOiwclc)" vector-effect="non-scaling-stroke" stroke-width="6" stroke="rgb(0,0,0)" stroke-linejoin="miter" stroke-linecap="square" stroke-miterlimit="2"/><mask id="_mask_jAXibmw7hsZTEylSVJrq1V2v5Y25gCOL"><rect x="785.125" y="326.315" width="68.25" height="68.25" fill="white" stroke="none"/></mask><rect x="785.125" y="326.315" width="68.25" height="68.25" transform="matrix(1,0,0,1,0,0)" fill="none"/><rect x="785.125" y="326.315" width="68.25" height="68.25" transform="matrix(1,0,0,1,0,0)" fill="none" mask="url(#_mask_jAXibmw7hsZTEylSVJrq1V2v5Y25gCOL)" vector-effect="non-scaling-stroke" stroke-width="6" stroke="rgb(0,0,0)" stroke-linejoin="miter" stroke-linecap="square" stroke-miterlimit="2"/><mask id="_mask_y3MJmSxlak2pYBtgaGznpp5rVwlCId2C"><rect x="850.125" y="326.315" width="68.25" height="68.25" fill="white" stroke="none"/></mask><rect x="850.125" y="326.315" width="68.25" height="68.25" transform="matrix(1,0,0,1,0,0)" fill="none"/><rect x="850.125" y="326.315" width="68.25" height="68.25" transform="matrix(1,0,0,1,0,0)" fill="none" mask="url(#_mask_y3MJmSxlak2pYBtgaGznpp5rVwlCId2C)" vector-effect="non-scaling-stroke" stroke-width="6" stroke="rgb(0,0,0)" stroke-linejoin="miter" stroke-linecap="square" stroke-miterlimit="2"/><mask id="_mask_YPdxHxZdvVWPJommDCgHKZ6lVQiNJmGG"><rect x="915.125" y="326.315" width="68.25" height="68.25" fill="white" stroke="none"/></mask><rect x="915.125" y="326.315" width="68.25" height="68.25" transform="matrix(1,0,0,1,0,0)" fill="none"/><rect x="915.125" y="326.315" width="68.25" height="68.25" transform="matrix(1,0,0,1,0,0)" fill="none" mask="url(#_mask_YPdxHxZdvVWPJommDCgHKZ6lVQiNJmGG)" vector-effect="non-scaling-stroke" stroke-width="6" stroke="rgb(0,0,0)" stroke-linejoin="miter" stroke-linecap="square" stroke-miterlimit="2"/><mask id="_mask_RhcMXLa3m2jTLUK5lo6OkVutB8yWkwFC"><rect x="980.125" y="326.315" width="68.25" height="68.25" fill="white" stroke="none"/></mask><rect x="980.125" y="326.315" width="68.25" height="68.25" transform="matrix(1,0,0,1,0,0)" fill="none"/><rect x="980.125" y="326.315" width="68.25" height="68.25" transform="matrix(1,0,0,1,0,0)" fill="none" mask="url(#_mask_RhcMXLa3m2jTLUK5lo6OkVutB8yWkwFC)" vector-effect="non-scaling-stroke" stroke-width="6" stroke="rgb(0,0,0)" stroke-linejoin="miter" stroke-linecap="square" stroke-miterlimit="2"/><mask id="_mask_LT79zCjH03fNukYQRppj5vf3QXhCXoXh"><rect x="1045.125" y="326.315" width="68.25" height="68.25" fill="white" stroke="none"/></mask><rect x="1045.125" y="326.315" width="68.25" height="68.25" transform="matrix(1,0,0,1,0,0)" fill="none"/><rect x="1045.125" y="326.315" width="68.25" height="68.25" transform="matrix(1,0,0,1,0,0)" fill="none" mask="url(#_mask_LT79zCjH03fNukYQRppj5vf3QXhCXoXh)" vector-effect="non-scaling-stroke" stroke-width="6" stroke="rgb(0,0,0)" stroke-linejoin="miter" stroke-linecap="square" stroke-miterlimit="2"/><mask id="_mask_b0eiWG3D29Cq8FsHfwVULbganYX8lJjW"><rect x="1110.125" y="326.315" width="68.25" height="68.25" fill="white" stroke="none"/></mask><rect x="1110.125" y="326.315" width="68.25" height="68.25" transform="matrix(1,0,0,1,0,0)" fill="none"/><rect x="1110.125" y="326.315" width="68.25" height="68.25" transform="matrix(1,0,0,1,0,0)" fill="none" mask="url(#_mask_b0eiWG3D29Cq8FsHfwVULbganYX8lJjW)" vector-effect="non-scaling-stroke" stroke-width="6" stroke="rgb(0,0,0)" stroke-linejoin="miter" stroke-linecap="square" stroke-miterlimit="2"/><mask id="_mask_BdTScqjVhH5LWLTBXlxd6kjvsdTnfhty"><rect x="1175.125" y="326.315" width="68.25" height="68.25" fill="white" stroke="none"/></mask><rect x="1175.125" y="326.315" width="68.25" height="68.25" transform="matrix(1,0,0,1,0,0)" fill="none"/><rect x="1175.125" y="326.315" width="68.25" height="68.25" transform="matrix(1,0,0,1,0,0)" fill="none" mask="url(#_mask_BdTScqjVhH5LWLTBXlxd6kjvsdTnfhty)" vector-effect="non-scaling-stroke" stroke-width="6" stroke="rgb(0,0,0)" stroke-linejoin="miter" stroke-linecap="square" stroke-miterlimit="2"/><mask id="_mask_L5145okZ9prUY7CoclWRaMegqwc8zJCA"><rect x="1240.125" y="326.315" width="68.25" height="68.25" fill="white" stroke="none"/></mask><rect x="1240.125" y="326.315" width="68.25" height="68.25" transform="matrix(1,0,0,1,0,0)" fill="none"/><rect x="1240.125" y="326.315" width="68.25" height="68.25" transform="matrix(1,0,0,1,0,0)" fill="none" mask="url(#_mask_L5145okZ9prUY7CoclWRaMegqwc8zJCA)" vector-effect="non-scaling-stroke" stroke-width="6" stroke="rgb(0,0,0)" stroke-linejoin="miter" stroke-linecap="square" stroke-miterlimit="2"/><mask id="_mask_UisXpvShQDHuoT2BJSjAbOqzby1pnaDo"><rect x="1305.125" y="326.315" width="68.25" height="68.25" fill="white" stroke="none"/></mask><rect x="1305.125" y="326.315" width="68.25" height="68.25" transform="matrix(1,0,0,1,0,0)" fill="none"/><rect x="1305.125" y="326.315" width="68.25" height="68.25" transform="matrix(1,0,0,1,0,0)" fill="none" mask="url(#_mask_UisXpvShQDHuoT2BJSjAbOqzby1pnaDo)" vector-effect="non-scaling-stroke" stroke-width="6" stroke="rgb(0,0,0)" stroke-linejoin="miter" stroke-linecap="square" stroke-miterlimit="2"/><g clip-path="url(#_clipPath_eHZEMlAuyAhlNh1apXycf72Nasy2jCN2)"><text transform="matrix(1,0,0,1,677.25,373.792)" style="font-family:'Overpass Mono';font-weight:400;font-size:36px;font-style:normal;fill:#000000;stroke:none;">2</text></g><defs><clipPath id="_clipPath_eHZEMlAuyAhlNh1apXycf72Nasy2jCN2"><rect x="0" y="0" width="25" height="45.576" transform="matrix(1,0,0,1,677.25,338.44)"/></clipPath></defs><g clip-path="url(#_clipPath_dXzt8subGjJzpymssJhAq3kRAvenIPtx)"><text transform="matrix(1,0,0,1,741.75,373.792)" style="font-family:'Overpass Mono';font-weight:400;font-size:36px;font-style:normal;fill:#000000;stroke:none;">1</text></g><defs><clipPath id="_clipPath_dXzt8subGjJzpymssJhAq3kRAvenIPtx"><rect x="0" y="0" width="25" height="45.576" transform="matrix(1,0,0,1,741.75,338.44)"/></clipPath></defs><g clip-path="url(#_clipPath_ji2ybernZcKENUEY94mOHsVVxlZ8SXpq)"><text transform="matrix(1,0,0,1,808.75,373.792)" style="font-family:'Overpass Mono';font-weight:400;font-size:36px;font-style:normal;fill:#000000;stroke:none;">1</text></g><defs><clipPath id="_clipPath_ji2ybernZcKENUEY94mOHsVVxlZ8SXpq"><rect x="0" y="0" width="25" height="45.576" transform="matrix(1,0,0,1,808.75,338.44)"/></clipPath></defs><g clip-path="url(#_clipPath_FWhk9cHnN3GhdX7Slo49MRt8O155Atua)"><text transform="matrix(1,0,0,1,938.75,373.792)" style="font-family:'Overpass Mono';font-weight:400;font-size:36px;font-style:normal;fill:#000000;stroke:none;">1</text></g><defs><clipPath id="_clipPath_FWhk9cHnN3GhdX7Slo49MRt8O155Atua"><rect x="0" y="0" width="25" height="45.576" transform="matrix(1,0,0,1,938.75,338.44)"/></clipPath></defs><g clip-path="url(#_clipPath_gqQtunvtS6EDpTkoooLH47S8pPe0IdmU)"><text transform="matrix(1,0,0,1,1001.75,373.792)" style="font-family:'Overpass Mono';font-weight:400;font-size:36px;font-style:normal;fill:#000000;stroke:none;">1</text></g><defs><clipPath id="_clipPath_gqQtunvtS6EDpTkoooLH47S8pPe0IdmU"><rect x="0" y="0" width="25" height="45.576" transform="matrix(1,0,0,1,1001.75,338.44)"/></clipPath></defs><g clip-path="url(#_clipPath_rIw84HCpPmVXnoum3tQm6Tt0KdRWYLmc)"><text transform="matrix(1,0,0,1,1328.75,373.792)" style="font-family:'Overpass Mono';font-weight:400;font-size:36px;font-style:normal;fill:#000000;stroke:none;">1</text></g><defs><clipPath id="_clipPath_rIw84HCpPmVXnoum3tQm6Tt0KdRWYLmc"><rect x="0" y="0" width="25" height="45.576" transform="matrix(1,0,0,1,1328.75,338.44)"/></clipPath></defs><g clip-path="url(#_clipPath_RaDHfCvODvZrCQY3GzlmDgqoLTmNKRz9)"><text transform="matrix(1,0,0,1,870.75,373.792)" style="font-family:'Overpass Mono';font-weight:400;font-size:36px;font-style:normal;fill:#000000;stroke:none;">0</text></g><defs><clipPath id="_clipPath_RaDHfCvODvZrCQY3GzlmDgqoLTmNKRz9"><rect x="0" y="0" width="25" height="45.576" transform="matrix(1,0,0,1,870.75,338.44)"/></clipPath></defs><g clip-path="url(#_clipPath_TW9XDZqaijVLxzM3WGzHktCDm4L3BdeA)"><text transform="matrix(1,0,0,1,1066.75,373.792)" style="font-family:'Overpass Mono';font-weight:400;font-size:36px;font-style:normal;fill:#000000;stroke:none;">0</text></g><defs><clipPath id="_clipPath_TW9XDZqaijVLxzM3WGzHktCDm4L3BdeA"><rect x="0" y="0" width="25" height="45.576" transform="matrix(1,0,0,1,1066.75,338.44)"/></clipPath></defs><g clip-path="url(#_clipPath_Nnl13l1jZcQcVdF6LfXWOv3MKaZNx8sx)"><text transform="matrix(1,0,0,1,1133.75,373.792)" style="font-family:'Overpass Mono';font-weight:400;font-size:36px;font-style:normal;fill:#000000;stroke:none;">0</text></g><defs><clipPath id="_clipPath_Nnl13l1jZcQcVdF6LfXWOv3MKaZNx8sx"><rect x="0" y="0" width="25" height="45.576" transform="matrix(1,0,0,1,1133.75,338.44)"/></clipPath></defs><g clip-path="url(#_clipPath_LiIcQmWMswv1sUDNldb50YOQMG2vye6r)"><text transform="matrix(1,0,0,1,1174.75,363.792)" style="font-family:'Overpass Mono';font-weight:400;font-size:36px;font-style:normal;fill:#000000;stroke:none;">...</text></g><defs><clipPath id="_clipPath_LiIcQmWMswv1sUDNldb50YOQMG2vye6r"><rect x="0" y="0" width="69" height="45.576" transform="matrix(1,0,0,1,1174.75,328.44)"/></clipPath></defs><g clip-path="url(#_clipPath_BjkMyw2OhLYaj8BlYZfH7zCgHXHFaCcY)"><text transform="matrix(1,0,0,1,102.25,237.428)" style="font-family:'Overpass Mono';font-weight:400;font-size:36px;font-style:normal;fill:#000000;stroke:none;">2</text></g><defs><clipPath id="_clipPath_BjkMyw2OhLYaj8BlYZfH7zCgHXHFaCcY"><rect x="0" y="0" width="25" height="45.576" transform="matrix(1,0,0,1,102.25,202.076)"/></clipPath></defs><g clip-path="url(#_clipPath_b9DwK9putP4qbKjx812oEYNfTHeEGbxk)"><text transform="matrix(1,0,0,1,192.25,417.428)" style="font-family:'Overpass Mono';font-weight:400;font-size:36px;font-style:normal;fill:#000000;stroke:none;">2</text></g><defs><clipPath id="_clipPath_b9DwK9putP4qbKjx812oEYNfTHeEGbxk"><rect x="0" y="0" width="25" height="45.576" transform="matrix(1,0,0,1,192.25,382.076)"/></clipPath></defs><g clip-path="url(#_clipPath_xQvzsKzjJA1A058LNWfdGnH5dqIxSmNm)"><text transform="matrix(1,0,0,1,282.25,417.428)" style="font-family:'Overpass Mono';font-weight:400;font-size:36px;font-style:normal;fill:#000000;stroke:none;">2</text></g><defs><clipPath id="_clipPath_xQvzsKzjJA1A058LNWfdGnH5dqIxSmNm"><rect x="0" y="0" width="25" height="45.576" transform="matrix(1,0,0,1,282.25,382.076)"/></clipPath></defs><g clip-path="url(#_clipPath_Cpwc5TFtZseGXUM43kaK4MlzkzjzVHBf)"><text transform="matrix(1,0,0,1,193.159,237.428)" style="font-family:'Overpass Mono';font-weight:400;font-size:36px;font-style:normal;fill:#000000;stroke:none;">1</text></g><defs><clipPath id="_clipPath_Cpwc5TFtZseGXUM43kaK4MlzkzjzVHBf"><rect x="0" y="0" width="25" height="45.576" transform="matrix(1,0,0,1,193.159,202.076)"/></clipPath></defs><g clip-path="url(#_clipPath_pLeXpUpDLzNTrpB6htm6HzerjXZtyhJ7)"><text transform="matrix(1,0,0,1,283.159,237.428)" style="font-family:'Overpass Mono';font-weight:400;font-size:36px;font-style:normal;fill:#000000;stroke:none;">1</text></g><defs><clipPath id="_clipPath_pLeXpUpDLzNTrpB6htm6HzerjXZtyhJ7"><rect x="0" y="0" width="25" height="45.576" transform="matrix(1,0,0,1,283.159,202.076)"/></clipPath></defs><g clip-path="url(#_clipPath_R3E28xA0XwPE9aHeicMars3YRvMT2LYj)"><text transform="matrix(1,0,0,1,193.159,327.428)" style="font-family:'Overpass Mono';font-weight:400;font-size:36px;font-style:normal;fill:#000000;stroke:none;">1</text></g><defs><clipPath id="_clipPath_R3E28xA0XwPE9aHeicMars3YRvMT2LYj"><rect x="0" y="0" width="25" height="45.576" transform="matrix(1,0,0,1,193.159,292.076)"/></clipPath></defs><g clip-path="url(#_clipPath_jhpoL8c7GUiT9ZBtezRlfCG5IA4ymZqv)"><text transform="matrix(1,0,0,1,366.159,417.428)" style="font-family:'Overpass Mono';font-weight:400;font-size:36px;font-style:normal;fill:#000000;stroke:none;">1</text></g><defs><clipPath id="_clipPath_jhpoL8c7GUiT9ZBtezRlfCG5IA4ymZqv"><rect x="0" y="0" width="25" height="45.576" transform="matrix(1,0,0,1,366.159,382.076)"/></clipPath></defs><g clip-path="url(#_clipPath_pDvPcIhjGAigaPvdlznzpxXEWXPDUyTH)"><text transform="matrix(1,0,0,1,366.159,508.466)" style="font-family:'Overpass Mono';font-weight:400;font-size:36px;font-style:normal;fill:#000000;stroke:none;">1</text></g><defs><clipPath id="_clipPath_pDvPcIhjGAigaPvdlznzpxXEWXPDUyTH"><rect x="0" y="0" width="25" height="45.576" transform="matrix(1,0,0,1,366.159,473.114)"/></clipPath></defs><g clip-path="url(#_clipPath_aVXthyuyP2ePTMnRvoBuXRJ8tP68h0aj)"><text transform="matrix(1,0,0,1,103.159,417.428)" style="font-family:'Overpass Mono';font-weight:400;font-size:36px;font-style:normal;fill:#000000;stroke:none;">1</text></g><defs><clipPath id="_clipPath_aVXthyuyP2ePTMnRvoBuXRJ8tP68h0aj"><rect x="0" y="0" width="25" height="45.576" transform="matrix(1,0,0,1,103.159,382.076)"/></clipPath></defs><g clip-path="url(#_clipPath_sRR26JFUncojzN0iPhSqpHmctW4jNymR)"><text transform="matrix(1,0,0,1,371.071,237.428)" style="font-family:'Overpass Mono';font-weight:400;font-size:36px;font-style:normal;fill:#000000;stroke:none;">0</text></g><defs><clipPath id="_clipPath_sRR26JFUncojzN0iPhSqpHmctW4jNymR"><rect x="0" y="0" width="25" height="45.576" transform="matrix(1,0,0,1,370.659,202.076)"/></clipPath></defs><g clip-path="url(#_clipPath_TVovnS28ln8SP3k4bbW3rMyZ0IOhv8mJ)"><text transform="matrix(1,0,0,1,371.071,327.716)" style="font-family:'Overpass Mono';font-weight:400;font-size:36px;font-style:normal;fill:#000000;stroke:none;">0</text></g><defs><clipPath id="_clipPath_TVovnS28ln8SP3k4bbW3rMyZ0IOhv8mJ"><rect x="0" y="0" width="25" height="45.576" transform="matrix(1,0,0,1,370.659,292.364)"/></clipPath></defs><g clip-path="url(#_clipPath_e2Agp8ntHIWZcQ3BKYKWCdghxB4CW4WP)"><text transform="matrix(1,0,0,1,103.159,327.428)" style="font-family:'Overpass Mono';font-weight:400;font-size:36px;font-style:normal;fill:#000000;stroke:none;">1</text></g><defs><clipPath id="_clipPath_e2Agp8ntHIWZcQ3BKYKWCdghxB4CW4WP"><rect x="0" y="0" width="25" height="45.576" transform="matrix(1,0,0,1,103.159,292.076)"/></clipPath></defs><g clip-path="url(#_clipPath_k6DWrUf5UoCB7wtT6uWquWCqXDuoU1i0)"><text transform="matrix(1,0,0,1,282.662,327.716)" style="font-family:'Overpass Mono';font-weight:400;font-size:36px;font-style:normal;fill:#000000;stroke:none;">0</text></g><defs><clipPath id="_clipPath_k6DWrUf5UoCB7wtT6uWquWCqXDuoU1i0"><rect x="0" y="0" width="25" height="45.576" transform="matrix(1,0,0,1,282.25,292.364)"/></clipPath></defs><g clip-path="url(#_clipPath_agmFlM7bSj1yjzmVBhFFHRdpUu5ae08n)"><text transform="matrix(1,0,0,1,192.662,508.466)" style="font-family:'Overpass Mono';font-weight:400;font-size:36px;font-style:normal;fill:#000000;stroke:none;">0</text></g><defs><clipPath id="_clipPath_agmFlM7bSj1yjzmVBhFFHRdpUu5ae08n"><rect x="0" y="0" width="25" height="45.576" transform="matrix(1,0,0,1,192.25,473.114)"/></clipPath></defs><g clip-path="url(#_clipPath_dBzkZvi2fLehpqPm3lU04WwmqCs4dlz7)"><text transform="matrix(1,0,0,1,1262.162,373.792)" style="font-family:'Overpass Mono';font-weight:400;font-size:36px;font-style:normal;fill:#000000;stroke:none;">0</text></g><defs><clipPath id="_clipPath_dBzkZvi2fLehpqPm3lU04WwmqCs4dlz7"><rect x="0" y="0" width="25" height="45.576" transform="matrix(1,0,0,1,1261.75,338.44)"/></clipPath></defs><g clip-path="url(#_clipPath_HvBdiRYpVQlGRk1oEeOCCGqqkhKB1clV)"><text transform="matrix(1,0,0,1,102.662,508.466)" style="font-family:'Overpass Mono';font-weight:400;font-size:36px;font-style:normal;fill:#000000;stroke:none;">0</text></g><defs><clipPath id="_clipPath_HvBdiRYpVQlGRk1oEeOCCGqqkhKB1clV"><rect x="0" y="0" width="25" height="45.576" transform="matrix(1,0,0,1,102.25,473.114)"/></clipPath></defs><g clip-path="url(#_clipPath_ImYhb8JFQPwq8YTFTuw0h3jXVVA1EJCy)"><text transform="matrix(1,0,0,1,282.662,508.466)" style="font-family:'Overpass Mono';font-weight:400;font-size:36px;font-style:normal;fill:#000000;stroke:none;">0</text></g><defs><clipPath id="_clipPath_ImYhb8JFQPwq8YTFTuw0h3jXVVA1EJCy"><rect x="0" y="0" width="25" height="45.576" transform="matrix(1,0,0,1,282.25,473.114)"/></clipPath></defs><g clip-path="url(#_clipPath_VYSdCt18gMfkUWzlOEGVpRE4WylALYyC)"><text transform="matrix(1,0,0,1,481.875,95.42)" style="font-family:'Overpass Mono';font-weight:400;font-size:60px;font-style:normal;fill:#000000;stroke:none;">Flatten layer</text></g><defs><clipPath id="_clipPath_VYSdCt18gMfkUWzlOEGVpRE4WylALYyC"><rect x="0" y="0" width="483" height="75.96" transform="matrix(1,0,0,1,481.875,36.5)"/></clipPath></defs></g></svg>