<?xml version="1.0" encoding="UTF-8" standalone="no"?>
<!-- Generator: Gravit.io -->
<svg xmlns="http://www.w3.org/2000/svg" xmlns:xlink="http://www.w3.org/1999/xlink" style="isolation:isolate" viewBox="0 0 2880 864" width="2880pt" height="864pt"><defs><clipPath id="_clipPath_M1A8Wtszn8Fx4YJm3qQqVRY736CZzrm7"><rect width="2880" height="864"/></clipPath></defs><g clip-path="url(#_clipPath_M1A8Wtszn8Fx4YJm3qQqVRY736CZzrm7)"><mask id="_mask_Z7ZMfTZSi8t7XRLSRev9IAgWbAKkxGuQ"><rect x="49.373" y="322.52" width="813.587" height="218.96" fill="white" stroke="none"/></mask><rect x="49.373" y="322.52" width="813.587" height="218.96" transform="matrix(1,0,0,1,0,0)" fill="none"/><rect x="49.373" y="322.52" width="813.587" height="218.96" transform="matrix(1,0,0,1,0,0)" fill="none" mask="url(#_mask_Z7ZMfTZSi8t7XRLSRev9IAgWbAKkxGuQ)" vector-effect="non-scaling-stroke" stroke-width="8" stroke="rgb(0,0,0)" stroke-linejoin="miter" stroke-linecap="square" stroke-miterlimit="2"/><mask id="_mask_gNFRTWo3LhCAHCDPJVdKTvbgl07mlaYX"><rect x="2015.72" y="322.52" width="813.587" height="218.96" fill="white" stroke="none"/></mask><rect x="2015.72" y="322.52" width="813.587" height="218.96" transform="matrix(1,0,0,1,0,0)" fill="none"/><rect x="2015.72" y="322.52" width="813.587" height="218.96" transform="matrix(1,0,0,1,0,0)" fill="none" mask="url(#_mask_gNFRTWo3LhCAHCDPJVdKTvbgl07mlaYX)" vector-effect="non-scaling-stroke" stroke-width="8" stroke="rgb(0,0,0)" stroke-linejoin="miter" stroke-linecap="square" stroke-miterlimit="2"/><mask id="_mask_pYmD2oSy85II26WhjFi37l5UTbVOC6DD"><rect x="1033.207" y="37.013" width="813.587" height="218.96" fill="white" stroke="none"/></mask><rect x="1033.207" y="37.013" width="813.587" height="218.96" transform="matrix(1,0,0,1,0,0)" fill="none"/><rect x="1033.207" y="37.013" width="813.587" height="218.96" transform="matrix(1,0,0,1,0,0)" fill="none" mask="url(#_mask_pYmD2oSy85II26WhjFi37l5UTbVOC6DD)" vector-effect="non-scaling-stroke" stroke-width="8" stroke="rgb(0,0,0)" stroke-linejoin="miter" stroke-linecap="square" stroke-miterlimit="2"/><mask id="_mask_Q5luYK2Pj9FnVcMB162CInzGTb6ax7LC"><rect x="1033.207" y="608.027" width="813.587" height="218.96" fill="white" stroke="none"/></mask><rect x="1033.207" y="608.027" width="813.587" height="218.96" transform="matrix(1,0,0,1,0,0)" fill="none"/><rect x="1033.207" y="608.027" width="813.587" height="218.96" transform="matrix(1,0,0,1,0,0)" fill="none" mask="url(#_mask_Q5luYK2Pj9FnVcMB162CInzGTb6ax7LC)" vector-effect="non-scaling-stroke" stroke-width="8" stroke="rgb(0,0,0)" stroke-linejoin="miter" stroke-linecap="square" stroke-miterlimit="2"/><g clip-path="url(#_clipPath_6tpC9bbcMR6nMDgkTr1hp6EW42ZMVuAZ)"><text transform="matrix(1,0,0,1,2144.013,452.94)" style="font-family:'Overpass Mono';font-weight:400;font-size:60px;font-style:normal;fill:#000000;stroke:none;">Cognitive Block</text></g><defs><clipPath id="_clipPath_6tpC9bbcMR6nMDgkTr1hp6EW42ZMVuAZ"><rect x="0" y="0" width="557" height="75.96" transform="matrix(1,0,0,1,2144.013,394.02)"/></clipPath></defs><g clip-path="url(#_clipPath_lI7i3ND1DNCYY9DIcSCYjy4rOzYhe3cO)"><text transform="matrix(1,0,0,1,103.667,452.94)" style="font-family:'Overpass Mono';font-weight:400;font-size:60px;font-style:normal;fill:#000000;stroke:none;">Preprocessing block</text></g><defs><clipPath id="_clipPath_lI7i3ND1DNCYY9DIcSCYjy4rOzYhe3cO"><rect x="0" y="0" width="705" height="75.96" transform="matrix(1,0,0,1,103.667,394.02)"/></clipPath></defs><g clip-path="url(#_clipPath_VsWO9f0sNVM9vPUT4Kv64iZNzzANXs47)"><text transform="matrix(1,0,0,1,1044.88,133.269)" style="font-family:'Overpass Mono';font-weight:400;font-size:58px;font-style:normal;fill:#000000;stroke:none;">Singularity Extracting</text><text transform="matrix(1,0,0,1,1349.06,206.697)" style="font-family:'Overpass Mono';font-weight:400;font-size:58px;font-style:normal;fill:#000000;stroke:none;">Chain</text></g><defs><clipPath id="_clipPath_VsWO9f0sNVM9vPUT4Kv64iZNzzANXs47"><rect x="0" y="0" width="789" height="146.856" transform="matrix(1,0,0,1,1044.88,76.313)"/></clipPath></defs><g clip-path="url(#_clipPath_7ZRMTqk1DEPLR6axfiskKSjetnMSwSzC)"><text transform="matrix(1,0,0,1,1206.5,701.035)" style="font-family:'Overpass Mono';font-weight:400;font-size:58px;font-style:normal;fill:#000000;stroke:none;">Convolutional</text><text transform="matrix(1,0,0,1,1349.68,774.463)" style="font-family:'Overpass Mono';font-weight:400;font-size:58px;font-style:normal;fill:#000000;stroke:none;">Chain</text></g><defs><clipPath id="_clipPath_7ZRMTqk1DEPLR6axfiskKSjetnMSwSzC"><rect x="0" y="0" width="467" height="146.856" transform="matrix(1,0,0,1,1206.5,644.079)"/></clipPath></defs><line x1="862.96" y1="432" x2="944.533" y2="432" vector-effect="non-scaling-stroke" stroke-width="4" stroke="rgb(0,0,0)" stroke-linejoin="miter" stroke-linecap="square" stroke-miterlimit="3"/><line x1="944.533" y1="432" x2="944.533" y2="149.741" vector-effect="non-scaling-stroke" stroke-width="4" stroke="rgb(0,0,0)" stroke-linejoin="miter" stroke-linecap="square" stroke-miterlimit="3"/><line x1="944.533" y1="432" x2="944.533" y2="717.507" vector-effect="non-scaling-stroke" stroke-width="4" stroke="rgb(0,0,0)" stroke-linejoin="miter" stroke-linecap="square" stroke-miterlimit="3"/><line x1="944.533" y1="717.507" x2="1033.207" y2="717.507" vector-effect="non-scaling-stroke" stroke-width="4" stroke="rgb(0,0,0)" stroke-linejoin="miter" stroke-linecap="square" stroke-miterlimit="3"/><line x1="944.533" y1="149.741" x2="1033.207" y2="149.741" vector-effect="non-scaling-stroke" stroke-width="4" stroke="rgb(0,0,0)" stroke-linejoin="miter" stroke-linecap="square" stroke-miterlimit="3"/><line x1="2014.97" y1="394.02" x2="1929.853" y2="394.02" vector-effect="non-scaling-stroke" stroke-width="4" stroke="rgb(0,0,0)" stroke-linejoin="miter" stroke-linecap="square" stroke-miterlimit="3"/><line x1="2015.72" y1="469.98" x2="1929.853" y2="469.98" vector-effect="non-scaling-stroke" stroke-width="4" stroke="rgb(0,0,0)" stroke-linejoin="miter" stroke-linecap="square" stroke-miterlimit="3"/><line x1="1929.853" y1="394.02" x2="1929.853" y2="149.741" vector-effect="non-scaling-stroke" stroke-width="4" stroke="rgb(0,0,0)" stroke-linejoin="miter" stroke-linecap="square" stroke-miterlimit="3"/><line x1="1929.853" y1="149.741" x2="1846.793" y2="149.741" vector-effect="non-scaling-stroke" stroke-width="4" stroke="rgb(0,0,0)" stroke-linejoin="miter" stroke-linecap="square" stroke-miterlimit="3"/><line x1="1929.853" y1="469.98" x2="1929.853" y2="717.507" vector-effect="non-scaling-stroke" stroke-width="4" stroke="rgb(0,0,0)" stroke-linejoin="miter" stroke-linecap="square" stroke-miterlimit="3"/><line x1="1929.853" y1="717.507" x2="1846.793" y2="717.507" vector-effect="non-scaling-stroke" stroke-width="4" stroke="rgb(0,0,0)" stroke-linejoin="miter" stroke-linecap="square" stroke-miterlimit="3"/></g></svg>