<?xml version="1.0" encoding="UTF-8" standalone="no"?>
<!-- Generator: Gravit.io -->
<svg xmlns="http://www.w3.org/2000/svg" xmlns:xlink="http://www.w3.org/1999/xlink" style="isolation:isolate" viewBox="0 0 2880 864" width="2880pt" height="864pt"><defs><clipPath id="_clipPath_vSoB3IEXc8o77MFl0ZaHVha8zjvIDQkE"><rect width="2880" height="864"/></clipPath></defs><g clip-path="url(#_clipPath_vSoB3IEXc8o77MFl0ZaHVha8zjvIDQkE)"><g clip-path="url(#_clipPath_wsTNuLAmHtslHguDKE8xnZAyicdKt7N9)"><text transform="matrix(1,0,0,1,1017.5,251.171)" style="font-family:'Overpass Mono';font-weight:400;font-size:72px;font-style:normal;fill:#000000;stroke:none;">Preprocessing block</text></g><defs><clipPath id="_clipPath_wsTNuLAmHtslHguDKE8xnZAyicdKt7N9"><rect x="0" y="0" width="845" height="91.152" transform="matrix(1,0,0,1,1017.5,180.467)"/></clipPath></defs><mask id="_mask_BHSavILVHoDKVVd3U8gzAmOU19SQAiai"><circle vector-effect="non-scaling-stroke" cx="612.573333333334" cy="431.9999999999999" r="79.42666666666662" fill="white" stroke="none"/></mask><circle vector-effect="non-scaling-stroke" cx="612.573333333334" cy="431.9999999999999" r="79.42666666666662" fill="none"/><circle vector-effect="non-scaling-stroke" cx="612.573333333334" cy="431.9999999999999" r="79.42666666666662" fill="none" mask="url(#_mask_BHSavILVHoDKVVd3U8gzAmOU19SQAiai)" stroke-width="8" stroke="rgb(0,0,0)" stroke-linejoin="miter" stroke-linecap="square" stroke-miterlimit="3"/><mask id="_mask_PNeqQUXwtQ9cdQGafTF9zzUB65RKiqtQ"><rect x="26.533" y="352.573" width="452.173" height="158.853" fill="white" stroke="none"/></mask><rect x="26.533" y="352.573" width="452.173" height="158.853" transform="matrix(1,0,0,1,0,0)" fill="none"/><rect x="26.533" y="352.573" width="452.173" height="158.853" transform="matrix(1,0,0,1,0,0)" fill="none" mask="url(#_mask_PNeqQUXwtQ9cdQGafTF9zzUB65RKiqtQ)" vector-effect="non-scaling-stroke" stroke-width="8" stroke="rgb(0,0,0)" stroke-linejoin="miter" stroke-linecap="square" stroke-miterlimit="2"/><mask id="_mask_i9O4vh7UtavHmpjZh5mg5UeflXyrwiCi"><rect x="754.253" y="580.12" width="452.173" height="158.853" fill="white" stroke="none"/></mask><rect x="754.253" y="580.12" width="452.173" height="158.853" transform="matrix(1,0,0,1,0,0)" fill="none"/><rect x="754.253" y="580.12" width="452.173" height="158.853" transform="matrix(1,0,0,1,0,0)" fill="none" mask="url(#_mask_i9O4vh7UtavHmpjZh5mg5UeflXyrwiCi)" vector-effect="non-scaling-stroke" stroke-width="8" stroke="rgb(0,0,0)" stroke-linejoin="miter" stroke-linecap="square" stroke-miterlimit="2"/><mask id="_mask_yS3jI5fgO8G0orh4IpKAAD9KffpWOGIT"><rect x="1282.333" y="580.12" width="452.173" height="158.853" fill="white" stroke="none"/></mask><rect x="1282.333" y="580.12" width="452.173" height="158.853" transform="matrix(1,0,0,1,0,0)" fill="none"/><rect x="1282.333" y="580.12" width="452.173" height="158.853" transform="matrix(1,0,0,1,0,0)" fill="none" mask="url(#_mask_yS3jI5fgO8G0orh4IpKAAD9KffpWOGIT)" vector-effect="non-scaling-stroke" stroke-width="8" stroke="rgb(0,0,0)" stroke-linejoin="miter" stroke-linecap="square" stroke-miterlimit="2"/><mask id="_mask_y3rtNSOw5wrRVKHhSlwFjTwum7f9VKeq"><rect x="1808.267" y="580.12" width="452.173" height="158.853" fill="white" stroke="none"/></mask><rect x="1808.267" y="580.12" width="452.173" height="158.853" transform="matrix(1,0,0,1,0,0)" fill="none"/><rect x="1808.267" y="580.12" width="452.173" height="158.853" transform="matrix(1,0,0,1,0,0)" fill="none" mask="url(#_mask_y3rtNSOw5wrRVKHhSlwFjTwum7f9VKeq)" vector-effect="non-scaling-stroke" stroke-width="8" stroke="rgb(0,0,0)" stroke-linejoin="miter" stroke-linecap="square" stroke-miterlimit="2"/><mask id="_mask_jaQKeWln5h0FZGrA8zo9NvisfefJsPtc"><rect x="2329.907" y="580.12" width="452.173" height="158.853" fill="white" stroke="none"/></mask><rect x="2329.907" y="580.12" width="452.173" height="158.853" transform="matrix(1,0,0,1,0,0)" fill="none"/><rect x="2329.907" y="580.12" width="452.173" height="158.853" transform="matrix(1,0,0,1,0,0)" fill="none" mask="url(#_mask_jaQKeWln5h0FZGrA8zo9NvisfefJsPtc)" vector-effect="non-scaling-stroke" stroke-width="8" stroke="rgb(0,0,0)" stroke-linejoin="miter" stroke-linecap="square" stroke-miterlimit="2"/><line x1="478.707" y1="432" x2="533.147" y2="432" vector-effect="non-scaling-stroke" stroke-width="4" stroke="rgb(0,0,0)" stroke-linejoin="miter" stroke-linecap="square" stroke-miterlimit="3"/><line x1="26.533" y1="432" x2="0" y2="432" vector-effect="non-scaling-stroke" stroke-width="4" stroke="rgb(0,0,0)" stroke-linejoin="miter" stroke-linecap="square" stroke-miterlimit="3"/><line x1="692" y1="432" x2="729.867" y2="432" vector-effect="non-scaling-stroke" stroke-width="4" stroke="rgb(0,0,0)" stroke-linejoin="miter" stroke-linecap="square" stroke-miterlimit="3"/><line x1="1206.427" y1="659.547" x2="1282.333" y2="659.547" vector-effect="non-scaling-stroke" stroke-width="4" stroke="rgb(0,0,0)" stroke-linejoin="miter" stroke-linecap="square" stroke-miterlimit="3"/><line x1="2782.08" y1="659.547" x2="2816.427" y2="659.547" vector-effect="non-scaling-stroke" stroke-width="4" stroke="rgb(0,0,0)" stroke-linejoin="miter" stroke-linecap="square" stroke-miterlimit="3"/><line x1="2816.427" y1="659.547" x2="2816.427" y2="432" vector-effect="non-scaling-stroke" stroke-width="4" stroke="rgb(0,0,0)" stroke-linejoin="miter" stroke-linecap="square" stroke-miterlimit="3"/><line x1="729.867" y1="432" x2="2880" y2="432" vector-effect="non-scaling-stroke" stroke-width="4" stroke="rgb(0,0,0)" stroke-linejoin="miter" stroke-linecap="square" stroke-miterlimit="3"/><line x1="1734.507" y1="659.547" x2="1808.267" y2="659.547" vector-effect="non-scaling-stroke" stroke-width="4" stroke="rgb(0,0,0)" stroke-linejoin="miter" stroke-linecap="square" stroke-miterlimit="3"/><line x1="2260.44" y1="659.547" x2="2329.907" y2="659.547" vector-effect="non-scaling-stroke" stroke-width="4" stroke="rgb(0,0,0)" stroke-linejoin="miter" stroke-linecap="square" stroke-miterlimit="3"/><line x1="754.253" y1="659.547" x2="612.573" y2="659.547" vector-effect="non-scaling-stroke" stroke-width="4" stroke="rgb(0,0,0)" stroke-linejoin="miter" stroke-linecap="square" stroke-miterlimit="3"/><line x1="612.573" y1="659.547" x2="612.573" y2="511.427" vector-effect="non-scaling-stroke" stroke-width="4" stroke="rgb(0,0,0)" stroke-linejoin="miter" stroke-linecap="square" stroke-miterlimit="3"/><polygon points="994.658,432,966.022,444.419,966.022,419.581" fill="rgb(0,0,0)"/><polygon points="1259.747,659.547,1231.11,671.965,1231.11,647.128" fill="rgb(0,0,0)"/><polygon points="1785.705,659.547,1757.068,671.965,1757.068,647.128" fill="rgb(0,0,0)"/><polygon points="2311.663,659.547,2283.027,671.965,2283.027,647.128" fill="rgb(0,0,0)"/><polygon points="2816.427,534.228,2828.845,562.865,2804.008,562.865" fill="rgb(0,0,0)"/><polygon points="686.413,659.547,657.777,671.965,657.777,647.128" fill="rgb(0,0,0)"/><polygon points="1544.747,432,1516.11,444.419,1516.11,419.581" fill="rgb(0,0,0)"/><polygon points="2062.99,432,2034.353,444.419,2034.353,419.581" fill="rgb(0,0,0)"/><polygon points="2584.63,432,2555.993,444.419,2555.993,419.581" fill="rgb(0,0,0)"/><g clip-path="url(#_clipPath_MCiVLzy6TzPyLZLWzskZdPbviyc5tRW8)"><text transform="matrix(1,0,0,1,589.073,457.128)" style="font-family:'Overpass Mono';font-weight:400;font-size:72px;font-style:normal;fill:#000000;stroke:none;">?</text></g><defs><clipPath id="_clipPath_MCiVLzy6TzPyLZLWzskZdPbviyc5tRW8"><rect x="0" y="0" width="47" height="91.152" transform="matrix(1,0,0,1,589.073,386.424)"/></clipPath></defs><g clip-path="url(#_clipPath_9QKxzbVPrhU5s6llGzTEDasQas4t8Di0)"><text transform="matrix(1,0,0,1,148.12,448.752)" style="font-family:'Overpass Mono';font-weight:400;font-size:48px;font-style:normal;fill:#000000;stroke:none;">Reshape</text></g><defs><clipPath id="_clipPath_9QKxzbVPrhU5s6llGzTEDasQas4t8Di0"><rect x="0" y="0" width="209" height="60.768" transform="matrix(1,0,0,1,148.12,401.616)"/></clipPath></defs><g clip-path="url(#_clipPath_Q6TUdZir1K3pMvVKhukqCssqjQPpYBZr)"><text transform="matrix(1,0,0,1,890.34,645.915)" style="font-family:'Overpass Mono';font-weight:400;font-size:48px;font-style:normal;fill:#000000;stroke:none;">Random</text><text transform="matrix(1,0,0,1,905.42,706.683)" style="font-family:'Overpass Mono';font-weight:400;font-size:48px;font-style:normal;fill:#000000;stroke:none;">Width</text></g><defs><clipPath id="_clipPath_Q6TUdZir1K3pMvVKhukqCssqjQPpYBZr"><rect x="0" y="0" width="180" height="121.536" transform="matrix(1,0,0,1,890.34,598.779)"/></clipPath></defs><g clip-path="url(#_clipPath_Pk2l8D5Ew7grLwnkUQ5y8JCbLbvK42bM)"><text transform="matrix(1,0,0,1,1418.716,645.915)" style="font-family:'Overpass Mono';font-weight:400;font-size:48px;font-style:normal;fill:#000000;stroke:none;">Random</text><text transform="matrix(1,0,0,1,1344.796,706.683)" style="font-family:'Overpass Mono';font-weight:400;font-size:48px;font-style:normal;fill:#000000;stroke:none;">Translation</text></g><defs><clipPath id="_clipPath_Pk2l8D5Ew7grLwnkUQ5y8JCbLbvK42bM"><rect x="0" y="0" width="328" height="121.536" transform="matrix(1,0,0,1,1344.42,598.779)"/></clipPath></defs><g clip-path="url(#_clipPath_RumsXFulRqTZY7iBqE8I9TXdwd6IURHB)"><text transform="matrix(1,0,0,1,1944.649,645.915)" style="font-family:'Overpass Mono';font-weight:400;font-size:48px;font-style:normal;fill:#000000;stroke:none;">Random</text><text transform="matrix(1,0,0,1,1974.217,706.683)" style="font-family:'Overpass Mono';font-weight:400;font-size:48px;font-style:normal;fill:#000000;stroke:none;">Zoom</text></g><defs><clipPath id="_clipPath_RumsXFulRqTZY7iBqE8I9TXdwd6IURHB"><rect x="0" y="0" width="180" height="121.536" transform="matrix(1,0,0,1,1944.353,598.779)"/></clipPath></defs><g clip-path="url(#_clipPath_kHmT1KeKAjVH16huGu3yfyQNy9mmHxWS)"><text transform="matrix(1,0,0,1,2466.289,676.299)" style="font-family:'Overpass Mono';font-weight:400;font-size:48px;font-style:normal;fill:#000000;stroke:none;">Resize</text></g><defs><clipPath id="_clipPath_kHmT1KeKAjVH16huGu3yfyQNy9mmHxWS"><rect x="0" y="0" width="180" height="60.768" transform="matrix(1,0,0,1,2465.993,629.163)"/></clipPath></defs></g></svg>