<?xml version="1.0" encoding="UTF-8" standalone="no"?>
<!-- Generator: Gravit.io -->
<svg xmlns="http://www.w3.org/2000/svg" xmlns:xlink="http://www.w3.org/1999/xlink" style="isolation:isolate" viewBox="0 0 2880 432" width="2880pt" height="432pt"><defs><clipPath id="_clipPath_4MdaXWefBx7stb0hanwEHcimrall9oBl"><rect width="2880" height="432"/></clipPath></defs><g clip-path="url(#_clipPath_4MdaXWefBx7stb0hanwEHcimrall9oBl)"><g clip-path="url(#_clipPath_83Ytb090a7mjw3kDnesUxhAZSxfcgwAU)"><text transform="matrix(1,0,0,1,977,73.947)" style="font-family:'Overpass Mono';font-weight:400;font-size:60px;font-style:normal;fill:#000000;stroke:none;">An example of a ConvBlock</text></g><defs><clipPath id="_clipPath_83Ytb090a7mjw3kDnesUxhAZSxfcgwAU"><rect x="0" y="0" width="926" height="75.96" transform="matrix(1,0,0,1,977,15.027)"/></clipPath></defs><mask id="_mask_JedHvmEhIIjWdnRoWnT1CZBM52FFS6Wx"><rect x="154.56" y="195.347" width="452.947" height="90.16" fill="white" stroke="none"/></mask><rect x="154.56" y="195.347" width="452.947" height="90.16" transform="matrix(1,0,0,1,0,0)" fill="none"/><rect x="154.56" y="195.347" width="452.947" height="90.16" transform="matrix(1,0,0,1,0,0)" fill="none" mask="url(#_mask_JedHvmEhIIjWdnRoWnT1CZBM52FFS6Wx)" vector-effect="non-scaling-stroke" stroke-width="8" stroke="rgb(0,0,0)" stroke-linejoin="miter" stroke-linecap="square" stroke-miterlimit="2"/><mask id="_mask_kfiX5hEAcGaYXHKuch62OgR83LzaA2KU"><rect x="1627.173" y="195.347" width="452.947" height="90.16" fill="white" stroke="none"/></mask><rect x="1627.173" y="195.347" width="452.947" height="90.16" transform="matrix(1,0,0,1,0,0)" fill="none"/><rect x="1627.173" y="195.347" width="452.947" height="90.16" transform="matrix(1,0,0,1,0,0)" fill="none" mask="url(#_mask_kfiX5hEAcGaYXHKuch62OgR83LzaA2KU)" vector-effect="non-scaling-stroke" stroke-width="8" stroke="rgb(0,0,0)" stroke-linejoin="miter" stroke-linecap="square" stroke-miterlimit="2"/><mask id="_mask_YrjPspnWDFZUlzh0pQzGVjyOnLfxUANK"><rect x="800.707" y="195.347" width="452.947" height="90.16" fill="white" stroke="none"/></mask><rect x="800.707" y="195.347" width="452.947" height="90.16" transform="matrix(1,0,0,1,0,0)" fill="none"/><rect x="800.707" y="195.347" width="452.947" height="90.16" transform="matrix(1,0,0,1,0,0)" fill="none" mask="url(#_mask_YrjPspnWDFZUlzh0pQzGVjyOnLfxUANK)" vector-effect="non-scaling-stroke" stroke-width="8" stroke="rgb(0,0,0)" stroke-linejoin="miter" stroke-linecap="square" stroke-miterlimit="2"/><mask id="_mask_36jtp7t2jxsia2JUh1eNBS1wgd1fPfoY"><rect x="2273.32" y="195.347" width="452.947" height="90.16" fill="white" stroke="none"/></mask><rect x="2273.32" y="195.347" width="452.947" height="90.16" transform="matrix(1,0,0,1,0,0)" fill="none"/><rect x="2273.32" y="195.347" width="452.947" height="90.16" transform="matrix(1,0,0,1,0,0)" fill="none" mask="url(#_mask_36jtp7t2jxsia2JUh1eNBS1wgd1fPfoY)" vector-effect="non-scaling-stroke" stroke-width="8" stroke="rgb(0,0,0)" stroke-linejoin="miter" stroke-linecap="square" stroke-miterlimit="2"/><line x1="607.507" y1="240.427" x2="800.707" y2="240.427" vector-effect="non-scaling-stroke" stroke-width="4" stroke="rgb(0,0,0)" stroke-linejoin="miter" stroke-linecap="square" stroke-miterlimit="3"/><line x1="2080.12" y1="240.427" x2="2273.32" y2="240.427" vector-effect="non-scaling-stroke" stroke-width="4" stroke="rgb(0,0,0)" stroke-linejoin="miter" stroke-linecap="square" stroke-miterlimit="3"/><line x1="154.56" y1="240.427" x2="0" y2="240.427" vector-effect="non-scaling-stroke" stroke-width="4" stroke="rgb(0,0,0)" stroke-linejoin="miter" stroke-linecap="square" stroke-miterlimit="3"/><line x1="1253.653" y1="240.427" x2="1627.173" y2="240.427" vector-effect="non-scaling-stroke" stroke-width="4" stroke="rgb(0,0,0)" stroke-linejoin="miter" stroke-linecap="square" stroke-miterlimit="3"/><line x1="2726.267" y1="240.427" x2="2880" y2="240.427" vector-effect="non-scaling-stroke" stroke-width="4" stroke="rgb(0,0,0)" stroke-linejoin="miter" stroke-linecap="square" stroke-miterlimit="3"/><g clip-path="url(#_clipPath_wcWIVqlw9H5NB73dHsdYwDlLtoQgYhDd)"><text transform="matrix(1,0,0,1,258.033,252.991)" style="font-family:'Overpass Mono';font-weight:400;font-size:36px;font-style:normal;fill:#000000;stroke:none;">Convolution</text></g><defs><clipPath id="_clipPath_wcWIVqlw9H5NB73dHsdYwDlLtoQgYhDd"><rect x="0" y="0" width="246" height="45.576" transform="matrix(1,0,0,1,258.033,217.639)"/></clipPath></defs><g clip-path="url(#_clipPath_odZwy8HrxzvaE9nAmkL4U47jAPzls63H)"><text transform="matrix(1,0,0,1,815.18,252.991)" style="font-family:'Overpass Mono';font-weight:400;font-size:36px;font-style:normal;fill:#000000;stroke:none;">Batch Normalization</text></g><defs><clipPath id="_clipPath_odZwy8HrxzvaE9nAmkL4U47jAPzls63H"><rect x="0" y="0" width="424" height="45.576" transform="matrix(1,0,0,1,815.18,217.639)"/></clipPath></defs><g clip-path="url(#_clipPath_6clQxLSy7haANCCT1x4ySmAusEcv6NFs)"><text transform="matrix(1,0,0,1,1730.647,252.991)" style="font-family:'Overpass Mono';font-weight:400;font-size:36px;font-style:normal;fill:#000000;stroke:none;">Convolution</text></g><defs><clipPath id="_clipPath_6clQxLSy7haANCCT1x4ySmAusEcv6NFs"><rect x="0" y="0" width="246" height="45.576" transform="matrix(1,0,0,1,1730.647,217.639)"/></clipPath></defs><g clip-path="url(#_clipPath_qzZz0E2TcVTBh1nGzGcR4vvdKW7sFu6E)"><text transform="matrix(1,0,0,1,2376.793,252.991)" style="font-family:'Overpass Mono';font-weight:400;font-size:36px;font-style:normal;fill:#000000;stroke:none;">Max Pooling</text></g><defs><clipPath id="_clipPath_qzZz0E2TcVTBh1nGzGcR4vvdKW7sFu6E"><rect x="0" y="0" width="246" height="45.576" transform="matrix(1,0,0,1,2376.793,217.639)"/></clipPath></defs></g></svg>