<?xml version="1.0" encoding="UTF-8" standalone="no"?>
<!-- Generator: Gravit.io -->
<svg xmlns="http://www.w3.org/2000/svg" xmlns:xlink="http://www.w3.org/1999/xlink" style="isolation:isolate" viewBox="0 0 2880 864" width="2880pt" height="864pt"><defs><clipPath id="_clipPath_OgjA4QoOOVZuAxNjzWif7mVpfjEVXIrE"><rect width="2880" height="864"/></clipPath></defs><g clip-path="url(#_clipPath_OgjA4QoOOVZuAxNjzWif7mVpfjEVXIrE)"><mask id="_mask_Qnaw3Uxgvp3CKPQzNarUYHmTbiyYZJYs"><rect x="208.845" y="182.36" width="371.373" height="133.093" fill="white" stroke="none"/></mask><rect x="208.845" y="182.36" width="371.373" height="133.093" transform="matrix(1,0,0,1,0,0)" fill="none"/><rect x="208.845" y="182.36" width="371.373" height="133.093" transform="matrix(1,0,0,1,0,0)" fill="none" mask="url(#_mask_Qnaw3Uxgvp3CKPQzNarUYHmTbiyYZJYs)" vector-effect="non-scaling-stroke" stroke-width="8" stroke="rgb(0,0,0)" stroke-linejoin="miter" stroke-linecap="square" stroke-miterlimit="2"/><mask id="_mask_qoEOx79JW7qQRnxOyarSijFljarXbR1s"><rect x="208.845" y="415.453" width="371.373" height="133.093" fill="white" stroke="none"/></mask><rect x="208.845" y="415.453" width="371.373" height="133.093" transform="matrix(1,0,0,1,0,0)" fill="none"/><rect x="208.845" y="415.453" width="371.373" height="133.093" transform="matrix(1,0,0,1,0,0)" fill="none" mask="url(#_mask_qoEOx79JW7qQRnxOyarSijFljarXbR1s)" vector-effect="non-scaling-stroke" stroke-width="8" stroke="rgb(0,0,0)" stroke-linejoin="miter" stroke-linecap="square" stroke-miterlimit="2"/><mask id="_mask_S7uwceaL4cdWFGSsSiLVG4ULwnsprx8k"><rect x="208.845" y="638.547" width="371.373" height="133.093" fill="white" stroke="none"/></mask><rect x="208.845" y="638.547" width="371.373" height="133.093" transform="matrix(1,0,0,1,0,0)" fill="none"/><rect x="208.845" y="638.547" width="371.373" height="133.093" transform="matrix(1,0,0,1,0,0)" fill="none" mask="url(#_mask_S7uwceaL4cdWFGSsSiLVG4ULwnsprx8k)" vector-effect="non-scaling-stroke" stroke-width="8" stroke="rgb(0,0,0)" stroke-linejoin="miter" stroke-linecap="square" stroke-miterlimit="2"/><mask id="_mask_Vme5zecyruuyFIxpSkvAemgaiKTCCv9r"><rect x="777.805" y="414.274" width="371.373" height="133.093" fill="white" stroke="none"/></mask><rect x="777.805" y="414.274" width="371.373" height="133.093" transform="matrix(1,0,0,1,0,0)" fill="none"/><rect x="777.805" y="414.274" width="371.373" height="133.093" transform="matrix(1,0,0,1,0,0)" fill="none" mask="url(#_mask_Vme5zecyruuyFIxpSkvAemgaiKTCCv9r)" vector-effect="non-scaling-stroke" stroke-width="8" stroke="rgb(0,0,0)" stroke-linejoin="miter" stroke-linecap="square" stroke-miterlimit="2"/><mask id="_mask_1imWMRhXZyRtVcUBguD262WZ5siOCsHl"><rect x="2195.305" y="414.274" width="558.695" height="133.093" fill="white" stroke="none"/></mask><rect x="2195.305" y="414.274" width="558.695" height="133.093" transform="matrix(1,0,0,1,0,0)" fill="none"/><rect x="2195.305" y="414.274" width="558.695" height="133.093" transform="matrix(1,0,0,1,0,0)" fill="none" mask="url(#_mask_1imWMRhXZyRtVcUBguD262WZ5siOCsHl)" vector-effect="non-scaling-stroke" stroke-width="8" stroke="rgb(0,0,0)" stroke-linejoin="miter" stroke-linecap="square" stroke-miterlimit="2"/><mask id="_mask_X3QRO6rHOn7l7JNqUegMeU0I8ofL15n6"><rect x="1293.805" y="414.274" width="371.373" height="133.093" fill="white" stroke="none"/></mask><rect x="1293.805" y="414.274" width="371.373" height="133.093" transform="matrix(1,0,0,1,0,0)" fill="none"/><rect x="1293.805" y="414.274" width="371.373" height="133.093" transform="matrix(1,0,0,1,0,0)" fill="none" mask="url(#_mask_X3QRO6rHOn7l7JNqUegMeU0I8ofL15n6)" vector-effect="non-scaling-stroke" stroke-width="8" stroke="rgb(0,0,0)" stroke-linejoin="miter" stroke-linecap="square" stroke-miterlimit="2"/><mask id="_mask_3Imr2L1IKa7rcU7Iulx1nRUjJ3nuT5O0"><rect x="1809.805" y="414.274" width="224.195" height="133.093" fill="white" stroke="none"/></mask><rect x="1809.805" y="414.274" width="224.195" height="133.093" transform="matrix(1,0,0,1,0,0)" fill="none"/><rect x="1809.805" y="414.274" width="224.195" height="133.093" transform="matrix(1,0,0,1,0,0)" fill="none" mask="url(#_mask_3Imr2L1IKa7rcU7Iulx1nRUjJ3nuT5O0)" vector-effect="non-scaling-stroke" stroke-width="8" stroke="rgb(0,0,0)" stroke-linejoin="miter" stroke-linecap="square" stroke-miterlimit="2"/><g clip-path="url(#_clipPath_0KLjlYUVN0lMKQHsTgks2cGX2OzHp98u)"><text transform="matrix(1,0,0,1,275.829,467.938)" style="font-family:'Open Sans';font-weight:400;font-size:48px;font-style:normal;fill:#000000;stroke:none;">Singularity</text><text transform="matrix(1,0,0,1,291.802,533.305)" style="font-family:'Open Sans';font-weight:400;font-size:48px;font-style:normal;fill:#000000;stroke:none;">Extractor</text></g><defs><clipPath id="_clipPath_0KLjlYUVN0lMKQHsTgks2cGX2OzHp98u"><rect x="0" y="0" width="238" height="130.734" transform="matrix(1,0,0,1,275.532,416.633)"/></clipPath></defs><g clip-path="url(#_clipPath_3pq0iwfMUNZebqwm0uKo9Qcu8LSbOOuU)"><text transform="matrix(1,0,0,1,275.829,691.031)" style="font-family:'Open Sans';font-weight:400;font-size:48px;font-style:normal;fill:#000000;stroke:none;">Singularity</text><text transform="matrix(1,0,0,1,291.802,756.398)" style="font-family:'Open Sans';font-weight:400;font-size:48px;font-style:normal;fill:#000000;stroke:none;">Extractor</text></g><defs><clipPath id="_clipPath_3pq0iwfMUNZebqwm0uKo9Qcu8LSbOOuU"><rect x="0" y="0" width="238" height="130.734" transform="matrix(1,0,0,1,275.532,639.726)"/></clipPath></defs><g clip-path="url(#_clipPath_21DHrOlOEVriGNz5qb5YBd8HX51IhJRQ)"><text transform="matrix(1,0,0,1,827.034,499.442)" style="font-family:'Open Sans';font-weight:400;font-size:48px;font-style:normal;fill:#000000;stroke:none;">Convolution</text></g><defs><clipPath id="_clipPath_21DHrOlOEVriGNz5qb5YBd8HX51IhJRQ"><rect x="0" y="0" width="273" height="65.367" transform="matrix(1,0,0,1,826.992,448.137)"/></clipPath></defs><g clip-path="url(#_clipPath_HxBEux5giASNc6N5bcMCjPO7nPZNfRNW)"><text transform="matrix(1,0,0,1,2244.687,499.442)" style="font-family:'Open Sans';font-weight:400;font-size:48px;font-style:normal;fill:#000000;stroke:none;">Batch Normalization</text></g><defs><clipPath id="_clipPath_HxBEux5giASNc6N5bcMCjPO7nPZNfRNW"><rect x="0" y="0" width="459" height="65.367" transform="matrix(1,0,0,1,2244.492,448.137)"/></clipPath></defs><g clip-path="url(#_clipPath_aT8ZVfoDxwlavy1pbwrCLA7IxvTJu3A9)"><text transform="matrix(1,0,0,1,1341.206,499.442)" style="font-family:'Open Sans';font-weight:400;font-size:48px;font-style:normal;fill:#000000;stroke:none;">Max Pooling</text></g><defs><clipPath id="_clipPath_aT8ZVfoDxwlavy1pbwrCLA7IxvTJu3A9"><rect x="0" y="0" width="277" height="65.367" transform="matrix(1,0,0,1,1340.992,448.137)"/></clipPath></defs><g clip-path="url(#_clipPath_GyorMgkXw5BGEh6HvjhQ9xLNGXLxfO52)"><text transform="matrix(1,0,0,1,1843.957,499.442)" style="font-family:'Open Sans';font-weight:400;font-size:48px;font-style:normal;fill:#000000;stroke:none;">Flatten</text></g><defs><clipPath id="_clipPath_GyorMgkXw5BGEh6HvjhQ9xLNGXLxfO52"><rect x="0" y="0" width="156" height="65.367" transform="matrix(1,0,0,1,1843.902,448.137)"/></clipPath></defs><g clip-path="url(#_clipPath_FLlzdv1BuO2A0XungxF1tD1V3sQEIVbr)"><text transform="matrix(1,0,0,1,275.829,234.844)" style="font-family:'Open Sans';font-weight:400;font-size:48px;font-style:normal;fill:#000000;stroke:none;">Singularity</text><text transform="matrix(1,0,0,1,291.802,300.211)" style="font-family:'Open Sans';font-weight:400;font-size:48px;font-style:normal;fill:#000000;stroke:none;">Extractor</text></g><defs><clipPath id="_clipPath_FLlzdv1BuO2A0XungxF1tD1V3sQEIVbr"><rect x="0" y="0" width="238" height="130.734" transform="matrix(1,0,0,1,275.532,183.539)"/></clipPath></defs><g clip-path="url(#_clipPath_2TKjfzMCZa6aPW75zZznofjvWS105PY6)"><text transform="matrix(1,0,0,1,814.5,112.704)" style="font-family:'Overpass Mono';font-weight:400;font-size:72px;font-style:normal;fill:#000000;stroke:none;">Singularity Extracting Chain</text></g><defs><clipPath id="_clipPath_2TKjfzMCZa6aPW75zZznofjvWS105PY6"><rect x="0" y="0" width="1251" height="90" transform="matrix(1,0,0,1,814.5,42)"/></clipPath></defs><line x1="208.845" y1="248.907" x2="31.5" y2="248.907" vector-effect="non-scaling-stroke" stroke-width="4" stroke="rgb(0,0,0)" stroke-linejoin="miter" stroke-linecap="square" stroke-miterlimit="3"/><line x1="394.532" y1="315.453" x2="394.532" y2="414.274" vector-effect="non-scaling-stroke" stroke-width="4" stroke="rgb(0,0,0)" stroke-linejoin="miter" stroke-linecap="square" stroke-miterlimit="3"/><line x1="394.532" y1="548.547" x2="394.532" y2="639.726" vector-effect="non-scaling-stroke" stroke-width="4" stroke="rgb(0,0,0)" stroke-linejoin="miter" stroke-linecap="square" stroke-miterlimit="3"/><line x1="580.219" y1="705.093" x2="679.5" y2="705.093" vector-effect="non-scaling-stroke" stroke-width="4" stroke="rgb(0,0,0)" stroke-linejoin="miter" stroke-linecap="square" stroke-miterlimit="3"/><line x1="777.805" y1="482" x2="679.5" y2="482" vector-effect="non-scaling-stroke" stroke-width="4" stroke="rgb(0,0,0)" stroke-linejoin="miter" stroke-linecap="square" stroke-miterlimit="3"/><line x1="679.5" y1="482" x2="679.5" y2="705.093" vector-effect="non-scaling-stroke" stroke-width="4" stroke="rgb(0,0,0)" stroke-linejoin="miter" stroke-linecap="square" stroke-miterlimit="3"/><line x1="1149.178" y1="482" x2="1293.805" y2="480.821" vector-effect="non-scaling-stroke" stroke-width="4" stroke="rgb(0,0,0)" stroke-linejoin="miter" stroke-linecap="square" stroke-miterlimit="3"/><line x1="1665.178" y1="482" x2="1809.805" y2="482" vector-effect="non-scaling-stroke" stroke-width="4" stroke="rgb(0,0,0)" stroke-linejoin="miter" stroke-linecap="square" stroke-miterlimit="3"/><line x1="2034" y1="482" x2="2195.305" y2="482" vector-effect="non-scaling-stroke" stroke-width="4" stroke="rgb(0,0,0)" stroke-linejoin="miter" stroke-linecap="square" stroke-miterlimit="3"/><line x1="2754" y1="481.41" x2="2855.25" y2="482" vector-effect="non-scaling-stroke" stroke-width="4" stroke="rgb(0,0,0)" stroke-linejoin="miter" stroke-linecap="square" stroke-miterlimit="3"/><polygon points="211.922,248.907,190.922,261.031,190.922,236.782" fill="rgb(0,0,0)"/><polygon points="1297.578,480.821,1276.578,492.945,1276.578,468.696" fill="rgb(0,0,0)"/><polygon points="1813.078,482,1792.078,494.124,1792.078,469.876" fill="rgb(0,0,0)"/><polygon points="2199.328,482,2178.328,494.124,2178.328,469.876" fill="rgb(0,0,0)"/><polygon points="2862.578,482,2841.578,494.124,2841.578,469.876" fill="rgb(0,0,0)"/><polygon points="781.453,482,760.453,494.124,760.453,469.876" fill="rgb(0,0,0)"/><polygon points="394.532,418.907,382.408,397.907,406.656,397.907" fill="rgb(0,0,0)"/><polygon points="394.532,642.657,382.408,621.657,406.656,621.657" fill="rgb(0,0,0)"/></g></svg>